<?xml version="1.0" encoding="utf-8"?>
<!-- Generator: Adobe Illustrator 16.0.0, SVG Export Plug-In . SVG Version: 6.00 Build 0)  -->
<!DOCTYPE svg PUBLIC "-//W3C//DTD SVG 1.1//EN" "http://www.w3.org/Graphics/SVG/1.1/DTD/svg11.dtd">
<svg version="1.1" id="Layer_1" xmlns="http://www.w3.org/2000/svg" xmlns:xlink="http://www.w3.org/1999/xlink" x="0px" y="0px"
	 width="351px" height="351px" viewBox="0 0 351 351" enable-background="new 0 0 351 351" xml:space="preserve">
<circle fill="#33B04A" cx="175.5" cy="175.5" r="175.5"/>
<path fill="#FFFFFF" d="M80.757,141.991c0,0-9.323,0-17.779,8.255v-33.116h-20.84v86.939h21.073v-6.808
	c0,0,4.978,9.008,17.546,9.008c0,0,29.395-1.116,29.395-32.519C110.152,173.751,109.067,141.991,80.757,141.991 M76.145,187.861
	c-7.413,0-13.399-5.987-13.399-13.383c0-7.429,5.986-13.41,13.399-13.41c7.407,0,13.405,5.981,13.405,13.41
	C89.55,181.874,83.551,187.861,76.145,187.861"/>
<path fill="#FFFFFF" d="M116.876,115.127v20.161c0,0,9.498-0.432,9.498,17.332v51.45h20.128v-56.22
	C146.502,147.85,147.377,115.127,116.876,115.127"/>
<path fill="#FFFFFF" d="M195.697,142.29c0,0-34.5,0-34.5,32.188c0,0-1.098,31.792,34.5,31.792c0,0,35.281-0.063,35.281-31.792
	C230.979,174.478,232.147,142.29,195.697,142.29 M195.712,187.861c-7.43,0-13.413-5.987-13.413-13.383
	c0-7.429,5.983-13.41,13.413-13.41c7.399,0,13.399,5.981,13.399,13.41C209.111,181.874,203.111,187.861,195.712,187.861"/>
<path fill="#FFFFFF" d="M288.564,144.325v5.921c0,0-5.991-7.957-17.524-7.957c0,0-29.514-1.278-29.514,31.958
	c0,0-0.325,30.975,28.697,30.975c0,0,11.836,0.458,18.341-7.961v4.865c0,0,1.486,15.271-13.292,15.271h-5.049v18.475h8.139
	c0,0,30.501,0.331,30.501-32.589v-58.959H288.564z M276.097,187.861c-7.401,0-13.413-5.987-13.413-13.383
	c0-7.429,6.012-13.41,13.413-13.41c7.413,0,13.396,5.981,13.396,13.41C289.493,181.874,283.51,187.861,276.097,187.861"/>
<g>
</g>
<g>
</g>
<g>
</g>
<g>
</g>
<g>
</g>
<g>
</g>
</svg>
