<svg xmlns="http://www.w3.org/2000/svg" viewBox="0 0 64 80" x="0px" y="0px" fill="#ffffff"><title>09-forest</title><g data-name="09-forest"><path d="M29,64H7V62H26.8l-5.548-6.341A1,1,0,0,1,22,54h3.8l-5.548-6.341A1,1,0,0,1,21,46h2.824L19.24,40.65A1,1,0,0,1,20,39h1.863l-3.632-4.36a1,1,0,0,1,.965-1.62l1.383.276L15,28.337,9.432,33.294,10.8,33.02a1,1,0,0,1,.964,1.62L8.135,39H10a1,1,0,0,1,.759,1.651L6.174,46H9a1,1,0,0,1,.752,1.659L4.2,54H7a1,1,0,0,1,.8,1.6L3,62H5v2H1a1,1,0,0,1-.8-1.6L5,56H2a1,1,0,0,1-.752-1.659L6.8,48H4a1,1,0,0,1-.759-1.651L7.826,41H6a1,1,0,0,1-.768-1.64l3.186-3.824L6.2,35.98a1,1,0,0,1-.86-1.729l9-8a1,1,0,0,1,1.328,0l9,8A1,1,0,0,1,23.8,35.98l-2.223-.444,3.186,3.822A1,1,0,0,1,24,41H22.173l4.586,5.349A1,1,0,0,1,26,48H23.2l5.548,6.341A1,1,0,0,1,28,56H24.2l5.548,6.341A1,1,0,0,1,29,64Z"/><path d="M63,64H59V62h2.2l-4.044-6.47A1,1,0,0,1,58,54h2.826l-4.585-5.349A1,1,0,0,1,57,47h1.865l-3.633-4.36a1,1,0,0,1,.964-1.62l1.382.276L52,36.337,46.423,41.3,47.8,41.02a1,1,0,0,1,.964,1.62L45.135,47H47a1,1,0,0,1,.759,1.651L43.174,54H46a1,1,0,0,1,.848,1.53l-3.75,6-1.7-1.06L44.2,56H41a1,1,0,0,1-.759-1.651L44.826,49H43a1,1,0,0,1-.768-1.64l3.186-3.824L43.2,43.98a1,1,0,0,1-.861-1.728l9-8a1,1,0,0,1,1.329,0l9,8A1,1,0,0,1,60.8,43.98l-2.222-.444,3.186,3.824A1,1,0,0,1,61,49H59.174l4.585,5.349A1,1,0,0,1,63,56H59.8l4.044,6.47A1,1,0,0,1,63,64Z"/><rect x="41" y="62" width="16" height="2"/><path d="M34,64H31a1,1,0,0,1-.895-1.447L34.382,54H32a1,1,0,0,1-.83-1.558l2.691-4,1.659,1.117L33.877,52H36a1,1,0,0,1,.9,1.447L32.618,62H34Z"/><path d="M36.865,47.558l-1.66-1.116L35.5,46H33.54a1,1,0,0,1-.835-1.55L36.294,39H35.08a1,1,0,0,1-.842-1.539l2.464-3.85-1.37.357a1,1,0,0,1-1.008-1.623l6.918-8A1,1,0,0,1,42,24h0a1,1,0,0,1,.756.346l6.92,8a1,1,0,0,1-1.008,1.622l-1.37-.357,2.462,3.846-1.68,1.086-3.842-6a1,1,0,0,1,1.094-1.507l.728.19L42,26.531l-4.059,4.69.725-.189a1,1,0,0,1,1.094,1.507L36.907,37H38.15a1,1,0,0,1,.835,1.55L35.4,44H37.38a1,1,0,0,1,.83,1.558Z"/><path d="M33.72,44.527l-.18-.29-2.381-3.695a1,1,0,0,1,1.092-1.51l.737.192-4.068-4.7-4.067,4.7.746-.194a1,1,0,0,1,1.092,1.509l-2.554,3.974-1.715-1.03.06-.1,1.142-1.774-1.373.357a1,1,0,0,1-1.005-1.624l6.918-8a1.033,1.033,0,0,1,1.512,0l6.93,8A1,1,0,0,1,35.6,41.968l-1.371-.356,1.192,1.861Z"/><path d="M62.293,42.707l-3-3A1,1,0,0,1,60,38h1.1l-3.6-5.234-3.3,4.8-1.648-1.132,4.12-6A1,1,0,0,1,57.5,30h0a1,1,0,0,1,.824.434l5.5,8A1,1,0,0,1,63,40h-.586l1.293,1.293Z"/><path d="M1.686,40.728.314,39.272,1.663,38H1a1,1,0,0,1-.809-1.588l5.82-8A1,1,0,0,1,6.82,28h0a1,1,0,0,1,.809.412l2.18,3L8.191,32.588,6.819,30.7,2.964,36H4.18a1,1,0,0,1,.686,1.728Z"/><path d="M44.255,17.354l-1.871-.708.078-.225A11.019,11.019,0,0,0,43,13q0-.463-.038-.917l1.994-.165c.029.357.044.717.044,1.082a13.092,13.092,0,0,1-.65,4.082l-.04.115Z"/><path d="M42.653,10.246A11.005,11.005,0,0,0,22.47,7.5l-1.731-1A13.005,13.005,0,0,1,44.59,9.747Z"/><path d="M20.182,18.418A12.85,12.85,0,0,1,19,13a13.047,13.047,0,0,1,.41-3.25l1.936.5A11.091,11.091,0,0,0,21,13a10.883,10.883,0,0,0,1,4.582Z"/><path d="M17.6,29.1a12.121,12.121,0,0,1-1.53-.095,1.4,1.4,0,0,1-.261-.028l.384-1.962c2.847.373,5.767-.543,8.593-1.425.616-.192,1.231-.384,1.844-.563.49-.136.967-.268,1.443-.39a33.594,33.594,0,0,1,7.157-.991,11.452,11.452,0,0,1,3.562.385l-.538,1.926a9.685,9.685,0,0,0-2.963-.312,31.606,31.606,0,0,0-6.727.931c-.459.117-.922.245-1.385.374-.589.172-1.192.36-1.8.549A26.523,26.523,0,0,1,17.6,29.1Z"/><path d="M27,27l-.116-.017v.007a18.351,18.351,0,0,1-7.012-2.012l-.143-.063.807-1.83.143.063a16.591,16.591,0,0,0,6.257,1.843,1,1,0,0,1,.286.049L27,25.728Z"/><path d="M3.052,24.047l-1.6-1.194a5.455,5.455,0,0,1,3.407-1.811,23.918,23.918,0,0,1,12.86.886q.329.117.649.241l-.722,1.866q-.3-.116-.6-.223A21.913,21.913,0,0,0,5.262,23,3.749,3.749,0,0,0,3.052,24.047Z"/><path d="M13,17.677a14.661,14.661,0,0,1-1.234-1.605,15.237,15.237,0,0,0-.942-1.257c-2.508-2.877-6.595-2.59-9.581-1.845L.757,11.03c4.989-1.245,9.1-.368,11.577,2.473a16.952,16.952,0,0,1,1.072,1.425,13.04,13.04,0,0,0,1.062,1.39Z"/><path d="M31.269,21.893a14.825,14.825,0,0,1-5.393-1.382,14.58,14.58,0,0,0-4.487-1.262c-.123-.01-.214-.007-.309-.009-.6,0-1.174.052-1.8.11a8.481,8.481,0,0,1-4.7-.454l.884-1.794a6.965,6.965,0,0,0,3.632.256,18.049,18.049,0,0,1,1.989-.118h0c.142,0,.288,0,.434.013a16.268,16.268,0,0,1,5.091,1.4c1.894.748,3.684,1.455,5.476,1.181a10.952,10.952,0,0,0,3.975-1.854,12.783,12.783,0,0,1,4.671-2.134,12.527,12.527,0,0,1,2.724-.072l.484.033c1.618.111,3.015.209,4.035-.562a5.938,5.938,0,0,0,1.232-1.482c.228-.339.457-.678.709-.994.1-.132.214-.27.329-.407l1.536,1.28c-.1.121-.2.244-.3.367-.224.281-.421.576-.618.869a7.5,7.5,0,0,1-1.69,1.965c-1.613,1.22-3.613,1.081-5.376.959l-.467-.032a10.831,10.831,0,0,0-2.278.049,11.175,11.175,0,0,0-3.926,1.85,12.562,12.562,0,0,1-4.738,2.141A7.325,7.325,0,0,1,31.269,21.893Z"/><path d="M53.679,11.819,52.533,10.18A6.012,6.012,0,0,1,56,9h7v2H56A4.009,4.009,0,0,0,53.679,11.819Z"/><path d="M60.152,21.207l-.3-1.977A20.471,20.471,0,0,1,63,19v2A18.392,18.392,0,0,0,60.152,21.207Z"/><path d="M43.115,26.916l-.171-1.993a16.971,16.971,0,0,0,3.882-.772c.838-.29,1.679-.658,2.462-1.012l3.7-1.635a33.1,33.1,0,0,1,4.745-1.82l.534,1.928A31.549,31.549,0,0,0,53.8,23.333l-3.7,1.632c-.816.37-1.708.76-2.636,1.08A18.974,18.974,0,0,1,43.115,26.916Z"/><rect x="36" y="62" width="5" height="2"/></g></svg>