<svg xmlns="http://www.w3.org/2000/svg" viewBox="0 0 64 80" x="0px" y="0px"><title>07-camp</title><g data-name="07-camp"><path d="M46.9,54.447l-1.79-.894L47.382,49H46a1,1,0,0,1-.9-1.447l2.921-5.841-.71.237A1,1,0,0,1,46.132,40.5l1.143-2,1.493.853.916-.306a1,1,0,0,1,1.211,1.4L47.618,47H49a1,1,0,0,1,.9,1.447Z"/><path d="M62.105,56.447l-4-8A1,1,0,0,1,59,47h1.382l-3.277-6.553a1,1,0,0,1,1.211-1.4l.517.173-2.7-4.728a1,1,0,0,1,1.184-1.445l.71.237-1.921-3.841A1,1,0,0,1,57.28,28.04L54,23.667,50.72,28.04A1,1,0,0,1,51.9,29.447l-1.921,3.841.71-.237A1,1,0,0,1,51.868,34.5l-2.857,5L47.275,38.5l1.558-2.728-.517.173a1,1,0,0,1-1.211-1.4l1.921-3.841-.71.237A1,1,0,0,1,47.2,29.4l6-8a1.036,1.036,0,0,1,1.6,0l6,8a1,1,0,0,1-1.116,1.549l-.71-.237L60.9,34.553a1,1,0,0,1-1.211,1.4l-.517-.173,2.7,4.728a1,1,0,0,1-1.184,1.445l-.71-.237L62.9,47.553A1,1,0,0,1,62,49H60.618L63.9,55.553Z"/><path d="M1.9,56.447l-1.79-.894L3.382,49H2a1,1,0,0,1-.895-1.447l2.921-5.841-.71.237A1,1,0,0,1,2.132,40.5l2.7-4.728-.517.173a1,1,0,0,1-1.211-1.4l1.921-3.841-.71.237A1,1,0,0,1,3.2,29.4l6-8a1.036,1.036,0,0,1,1.6,0l6,8a1,1,0,0,1-1.116,1.549l-.71-.237L16.9,34.553a1,1,0,0,1-1.211,1.4l-.517-.173,2.7,4.728a1,1,0,0,1-1.184,1.445l-.71-.237L18.9,47.553A1,1,0,0,1,18,49H16.618L18.9,53.555l-1.79.894-3-6A1,1,0,0,1,15,47h1.382l-3.277-6.553a1,1,0,0,1,1.211-1.4l.517.173-2.7-4.728a1,1,0,0,1,1.184-1.445l.71.237-1.921-3.841A1,1,0,0,1,13.28,28.04L10,23.667,6.72,28.04A1,1,0,0,1,7.9,29.447L5.974,33.288l.71-.237A1,1,0,0,1,7.868,34.5l-2.7,4.728.517-.173a1,1,0,0,1,1.211,1.4L3.618,47H5A1,1,0,0,1,5.9,48.447Z"/><path d="M46,50H33V48H44.259l-5.124-8.783,1.728-1.008,6,10.287A1,1,0,0,1,46,50Z"/><path d="M38.136,37.5,32,26.985,31.114,28.5,29.386,27.5l1.75-3a1.041,1.041,0,0,1,1.728,0l7,12Z"/><path d="M31,50H18a1,1,0,0,1-.864-1.5L28.8,28.5,30.53,29.5,19.741,48H31Z"/><path d="M42,50c-4.673,0-8.326-4.656-10-10.268C30.326,45.344,26.673,50,22,50V48c4.71,0,9-7.149,9-15a1,1,0,0,1,2,0c0,7.851,4.29,15,9,15Z"/><path d="M32,26a1,1,0,0,1-.707-.293l-2-2,1.414-1.414L32,23.586l1.293-1.293,1.414,1.414-2,2A1,1,0,0,1,32,26Z"/><rect x="21" y="43" width="3" height="2"/><rect x="26" y="43" width="3" height="2"/><rect x="35" y="43" width="8" height="2"/><path d="M54,20H52V9.214L48.293,5.507a1,1,0,0,1,0-1.414l1.8-1.8a1,1,0,0,1,1.414,0L52,2.786V1a1,1,0,0,1,1-1h4a1,1,0,0,1,1,1V4H56V2H54V5.2a1,1,0,0,1-1.707.707L50.8,4.414l-.386.386,3.293,3.293A1,1,0,0,1,54,8.8Z"/><path d="M58,21H56V19.8a1,1,0,0,1,.293-.707L59.586,15.8l-.386-.386-1.493,1.493A1,1,0,0,1,56,16.2V6h2v7.786l.493-.493a1,1,0,0,1,1.414,0l1.8,1.8a1,1,0,0,1,0,1.414L58,20.214Z"/><path d="M12,20H10V8.8a1,1,0,0,1,.293-.707L13.586,4.8,13.2,4.414,11.707,5.907A1,1,0,0,1,10,5.2V2H8v8H6V1A1,1,0,0,1,7,0h4a1,1,0,0,1,1,1V2.786l.493-.493a1,1,0,0,1,1.414,0l1.8,1.8a1,1,0,0,1,0,1.414L12,9.214Z"/><path d="M8,21H6v-.786L2.293,16.507a1,1,0,0,1,0-1.414l1.8-1.8a1,1,0,0,1,1.414,0L6,13.786V12H8v4.2a1,1,0,0,1-1.707.707L4.8,15.414l-.386.386,3.293,3.293A1,1,0,0,1,8,19.8Z"/><rect x="18" y="20" width="2" height="19"/><path d="M24,31H22V24.8a1,1,0,0,1,.293-.707L25.586,20.8l-.386-.386-1.493,1.493A1,1,0,0,1,22,21.2V6.8a1,1,0,0,1,.293-.707L25.586,2.8,25.2,2.414,23.707,3.907A1,1,0,0,1,22,3.2V2H20V12.2a1,1,0,0,1-1.707.707L16.8,11.414l-.386.386,3.293,3.293A1,1,0,0,1,20,15.8V18H18V16.214l-3.707-3.707a1,1,0,0,1,0-1.414l1.8-1.8a1,1,0,0,1,1.414,0L18,9.786V1a1,1,0,0,1,1-1h4a1,1,0,0,1,.981.805l.512-.512a1,1,0,0,1,1.414,0l1.8,1.8a1,1,0,0,1,0,1.414L24,7.214V18.786l.493-.493a1,1,0,0,1,1.414,0l1.8,1.8a1,1,0,0,1,0,1.414L24,25.214Z"/><rect x="22" y="33" width="2" height="2"/><rect x="44" y="20" width="2" height="19"/><path d="M42,31H40V25.214l-3.707-3.707a1,1,0,0,1,0-1.414l1.8-1.8a1,1,0,0,1,1.414,0l.493.493V7.214L36.293,3.507a1,1,0,0,1,0-1.414l1.8-1.8a1,1,0,0,1,1.414,0l.512.512A1,1,0,0,1,41,0h4a1,1,0,0,1,1,1V9.786l.493-.493a1,1,0,0,1,1.414,0l1.8,1.8a1,1,0,0,1,0,1.414L46,16.214V18H44V15.8a1,1,0,0,1,.293-.707L47.586,11.8l-.386-.386-1.493,1.493A1,1,0,0,1,44,12.2V2H42V3.2a1,1,0,0,1-1.707.707L38.8,2.414l-.386.386,3.293,3.293A1,1,0,0,1,42,6.8V21.2a1,1,0,0,1-1.707.707L38.8,20.414l-.386.386,3.293,3.293A1,1,0,0,1,42,24.8Z"/><rect x="40" y="33" width="2" height="2"/><path d="M61.154,64H59V62h2.154A.894.894,0,0,0,62,61.1a3.184,3.184,0,0,0-.865-2.3,2.539,2.539,0,0,0-1.826-.8,1,1,0,0,1-1-1,2.708,2.708,0,1,0-5.385,0,1,1,0,0,1-1,1,2.583,2.583,0,0,0-2.029,1.058,1,1,0,0,1-1.777-.441A1.841,1.841,0,0,0,46.385,57a1.878,1.878,0,0,0-1.753,1.859,1,1,0,0,1-1.7.646,1.661,1.661,0,0,0-1.075-.5,1.514,1.514,0,0,0-1.131.453A2.419,2.419,0,0,0,40,61.19V62H57v2H39.923A1.965,1.965,0,0,1,38,62v-.81A4.4,4.4,0,0,1,39.348,58a3.511,3.511,0,0,1,2.616-1,3.557,3.557,0,0,1,1.054.224A3.754,3.754,0,0,1,46.385,55a3.7,3.7,0,0,1,3.105,1.737A4.49,4.49,0,0,1,51,56.1a4.649,4.649,0,0,1,9.232,0A4.572,4.572,0,0,1,62.569,57.4,5.19,5.19,0,0,1,64,61.161,2.907,2.907,0,0,1,61.154,64Z"/><path d="M19,64H7V62H19ZM5,64H2.846A2.907,2.907,0,0,1,0,61.161,5.19,5.19,0,0,1,1.431,57.4,4.572,4.572,0,0,1,3.769,56.1,4.793,4.793,0,0,1,8.385,52,4.793,4.793,0,0,1,13,56.1a4.49,4.49,0,0,1,1.509.638A3.7,3.7,0,0,1,17.615,55a3.877,3.877,0,0,1,3.749,3.732l-2,.127A1.878,1.878,0,0,0,17.615,57a1.841,1.841,0,0,0-1.732,1.617,1,1,0,0,1-1.777.441A2.583,2.583,0,0,0,12.077,58a1,1,0,0,1-1-1,2.862,2.862,0,0,0-2.692-3,2.862,2.862,0,0,0-2.693,3,1,1,0,0,1-1,1,2.539,2.539,0,0,0-1.826.8A3.184,3.184,0,0,0,2,61.1a.894.894,0,0,0,.845.9H5Z"/><path d="M31.5,64h-9A2.368,2.368,0,0,1,20,61.8a3.588,3.588,0,0,1,3.15-3.323A3.963,3.963,0,0,1,27,56a3.963,3.963,0,0,1,3.85,2.477A3.588,3.588,0,0,1,34,61.8,2.368,2.368,0,0,1,31.5,64ZM22,61.8a.583.583,0,0,0,.5.2h9a.576.576,0,0,0,.5-.206c0-.753-.917-1.394-2-1.394a1,1,0,0,1-1-1c0-.759-.916-1.4-2-1.4s-2,.641-2,1.4a1,1,0,0,1-1,1C22.917,60.4,22,61.039,22,61.8Z"/><rect x="39" y="52" width="2" height="2"/><rect x="36" y="54" width="2" height="2"/><rect x="23" y="53" width="2" height="2"/></g></svg>