<svg xmlns="http://www.w3.org/2000/svg" xmlns:xlink="http://www.w3.org/1999/xlink" version="1.1" x="0px" y="0px" viewBox="0 0 100 125" style="enable-background:new 0 0 100 100;" xml:space="preserve"><path d="M89,88H51v-9.6293335c2.7825317,2.2677612,6.2746582,3.5409546,9.8891602,3.5409546  c8.6494141,0,15.6865234-7.0371094,15.6865234-15.6870117c0-4.4160156-1.847168-8.590332-5.0917969-11.5629883  c0.4853516-1.3930664,0.7314453-2.8447266,0.7314453-4.3251953c0-3.8911133-1.7524414-7.6030273-4.7290039-10.0981445  c0.8095703-1.5756836,1.2338867-3.3168945,1.2338867-5.0854492c0-5.0063477-3.3125-9.3417969-8.0273438-10.7177734  c0.3208008-1.0512695,0.4829102-2.1430664,0.4829102-3.2592773C61.1757812,15.0136719,56.1621094,10,50,10  s-11.1757812,5.0136719-11.1757812,11.1757812c0,1.1162109,0.1621094,2.2080078,0.4829102,3.2592773  c-4.7148438,1.3759766-8.0273438,5.7114258-8.0273438,10.7177734c0,1.7685547,0.4243164,3.5097656,1.2338867,5.0854492  c-2.9765625,2.4951172-4.7290039,6.2070312-4.7290039,10.0981445c0,1.4804688,0.2460938,2.9321289,0.7314453,4.3251953  c-3.2446289,2.9726562-5.0917969,7.1469727-5.0917969,11.5629883c0,8.6499023,7.0371094,15.6870117,15.6865234,15.6870117  c3.614502,0,7.1066284-1.2731934,9.8891602-3.5409546V88H11c-0.5522461,0-1,0.4477539-1,1s0.4477539,1,1,1h78  c0.5522461,0,1-0.4477539,1-1S89.5522461,88,89,88z M39.1108398,79.9116211c-7.546875,0-13.6865234-6.1401367-13.6865234-13.6870117  c0-4.0610352,1.7915039-7.8886719,4.9145508-10.5009766c0.3344727-0.2797852,0.4492188-0.7436523,0.2836914-1.1469727  c-0.5561523-1.3540039-0.8378906-2.7807617-0.8378906-4.2402344c0-3.5517578,1.7236328-6.9287109,4.6108398-9.0327148  c0.4228516-0.3081055,0.5366211-0.8896484,0.2612305-1.3344727c-0.9008789-1.4555664-1.3769531-3.1210938-1.3769531-4.8164062  c0-4.4345703,3.1660156-8.2280273,7.5288086-9.0195312c0.2988281-0.0541992,0.5571289-0.2416992,0.7011719-0.5087891  c0.1445312-0.2675781,0.1591797-0.5864258,0.0405273-0.8657227c-0.4819336-1.1347656-0.7260742-2.340332-0.7260742-3.5830078  C40.8242188,16.1162109,44.9404297,12,50,12s9.1757812,4.1162109,9.1757812,9.1757812  c0,1.2426758-0.2441406,2.4482422-0.7260742,3.5830078c-0.1186523,0.2792969-0.1040039,0.5981445,0.0405273,0.8657227  c0.144043,0.2670898,0.4023438,0.4545898,0.7011719,0.5087891c4.362793,0.7915039,7.5288086,4.5849609,7.5288086,9.0195312  c0,1.6953125-0.4760742,3.3608398-1.3769531,4.8164062c-0.2753906,0.4448242-0.1616211,1.0263672,0.2612305,1.3344727  c2.887207,2.1040039,4.6108398,5.480957,4.6108398,9.0327148c0,1.4594727-0.2817383,2.8862305-0.8378906,4.2402344  c-0.1655273,0.4033203-0.0507812,0.8671875,0.2836914,1.1469727c3.1230469,2.6123047,4.9145508,6.4399414,4.9145508,10.5009766  c0,7.546875-6.1396484,13.6870117-13.6865234,13.6870117c-3.7289429,0-7.3065796-1.5586548-9.8891602-4.2699585V59.8789062  l6.7314453-6.730957c0.390625-0.390625,0.390625-1.0234375,0-1.4140625s-1.0234375-0.390625-1.4140625,0L51,57.0509033V46.3730469  l5.6938477-5.6943359c0.390625-0.390625,0.390625-1.0234375,0-1.4140625s-1.0234375-0.390625-1.4140625,0L51,43.5447998v-8.7279053  c0-0.5522461-0.4477539-1-1-1s-1,0.4477539-1,1v8.7279053l-4.2797852-4.2801514c-0.390625-0.390625-1.0234375-0.390625-1.4140625,0  s-0.390625,1.0234375,0,1.4140625L49,46.3730469v10.6778564l-5.3173828-5.3170166  c-0.390625-0.390625-1.0234375-0.390625-1.4140625,0s-0.390625,1.0234375,0,1.4140625L49,59.8789062v15.7627563  C46.4174194,78.3529663,42.8397827,79.9116211,39.1108398,79.9116211z"/></svg>