<svg xmlns="http://www.w3.org/2000/svg" xmlns:xlink="http://www.w3.org/1999/xlink" version="1.1" x="0px" y="0px" viewBox="0 0 100 125" style="enable-background:new 0 0 100 100;" xml:space="preserve"><style type="text/css">
	.st0{fill:none;stroke:#000000;stroke-width:2;stroke-linecap:round;stroke-linejoin:round;stroke-miterlimit:10;}
</style><path d="M64.601,19.391c4.992-1.05,9.403-0.112,9.448-0.103c0.379,0.084,0.775-0.062,1.011-0.373  c0.235-0.311,0.269-0.729,0.086-1.073c-3.758-7.064-12.563-9.755-19.627-5.996c-3.196,1.7-5.485,4.438-6.698,7.575  c-1.213-3.138-3.502-5.875-6.698-7.575c-7.065-3.76-15.869-1.068-19.627,5.996c-0.183,0.344-0.149,0.763,0.086,1.073  c0.235,0.311,0.632,0.458,1.011,0.373c0.044-0.009,4.455-0.947,9.448,0.103c4.928,1.034,8.667,3.553,11.167,7.51  c-2.779-2.368-6.374-3.807-10.303-3.807c-8.776,0-15.917,7.141-15.917,15.917c0,0.39,0.227,0.743,0.58,0.907  c0.354,0.164,0.771,0.106,1.067-0.146c0.038-0.032,3.863-3.242,9.293-4.817c5.235-1.52,10.097-1.056,14.52,1.354  c-1.294-0.024-2.597,0.146-3.87,0.535c-3.172,0.969-5.776,3.115-7.334,6.043s-1.882,6.287-0.913,9.459s3.115,5.776,6.043,7.334  c0.147,0.078,0.309,0.117,0.469,0.117c0.214,0,0.427-0.069,0.604-0.203c0.311-0.235,0.456-0.63,0.374-1.011  c-0.008-0.037-0.793-3.74,0.088-7.928c1.09-5.178,4.168-8.766,9.105-10.718v48.101H45.45c-0.552,0-1,0.447-1,1s0.448,1,1,1h7.127  c0.552,0,1-0.447,1-1s-0.448-1-1-1h-2.563V40.061c4.757,1.979,7.73,5.524,8.797,10.594c0.881,4.188,0.097,7.891,0.088,7.928  c-0.083,0.381,0.063,0.775,0.374,1.011c0.178,0.134,0.391,0.203,0.604,0.203c0.16,0,0.321-0.039,0.469-0.117  c2.928-1.558,5.074-4.162,6.043-7.334s0.645-6.531-0.913-9.459s-4.162-5.074-7.334-6.043c-1.277-0.39-2.583-0.561-3.879-0.536  c4.438-2.403,9.313-2.863,14.563-1.339c5.461,1.584,9.308,4.813,9.346,4.846c0.297,0.252,0.713,0.31,1.068,0.146  c0.354-0.164,0.58-0.518,0.58-0.907c0-8.822-7.178-16-16-16c-3.967,0-7.594,1.46-10.392,3.859  C55.927,22.949,59.669,20.426,64.601,19.391z M48.014,31.674c-0.006-0.011-0.011-0.023-0.017-0.035  c0.006-0.007,0.011-0.016,0.017-0.023V31.674z M27.942,16.919c-0.971,0-1.837,0.049-2.557,0.113  c3.653-4.759,10.33-6.33,15.797-3.421c5.383,2.864,7.82,9.125,6.077,14.746C42.761,18.56,33.583,16.919,27.942,16.919z   M20.141,36.938c1.004-6.694,6.793-11.845,13.763-11.845c6.875,0,12.602,5.012,13.719,11.573  C36.349,27.882,24.552,34.016,20.141,36.938z M36.579,56.76c-1.571-1.289-2.729-3.011-3.336-4.998  c-0.812-2.661-0.541-5.479,0.766-7.936s3.492-4.257,6.152-5.069c1.006-0.308,2.034-0.46,3.056-0.46c0.904,0,1.803,0.119,2.679,0.355  C36.732,43.097,36.262,52.455,36.579,56.76z M57.558,38.757c2.661,0.812,4.846,2.613,6.152,5.069s1.579,5.274,0.766,7.936  c-0.607,1.987-1.766,3.709-3.336,4.998c0.317-4.305-0.153-13.663-9.317-18.107C53.689,38.147,55.663,38.177,57.558,38.757z   M63.82,25.053c7.016,0,12.843,5.187,13.847,11.928c-2.728-1.811-8.282-4.853-14.798-4.853c-4.061,0-8.498,1.183-12.853,4.581  C51.134,30.102,56.898,25.053,63.82,25.053z M50.381,28.357c-1.743-5.621,0.694-11.882,6.077-14.746  c1.867-0.993,3.874-1.464,5.855-1.464c3.819,0,7.536,1.751,9.942,4.885C67.354,16.594,55.653,16.874,50.381,28.357z"/></svg>