<svg xmlns="http://www.w3.org/2000/svg" xmlns:xlink="http://www.w3.org/1999/xlink" version="1.1" x="0px" y="0px" viewBox="0 0 100 125" style="enable-background:new 0 0 100 100;" xml:space="preserve"><style type="text/css">
	.st0{fill:none;stroke:#000000;stroke-width:2;stroke-linecap:round;stroke-linejoin:round;stroke-miterlimit:10;}
</style><g><path d="M20.2,47.4c0,6.7,5.5,12.2,12.2,12.2c3.1,0,5.9-1.2,8.1-3.1l9,9v22.3c0,0.6,0.4,1,1,1s1-0.4,1-1V65.4l8.5-8.5   c0,0,0-0.1,0.1-0.1c1.7,1.6,4,2.6,6.5,2.6c5.3,0,9.6-4.3,9.6-9.6c0-3.1-1.5-5.9-3.9-7.7c5.6-1,9.9-5.9,9.9-11.7   c0-6.6-5.3-11.9-11.9-11.9c-2.8,0-5.4,1-7.4,2.6c0.2-0.8,0.3-1.7,0.3-2.6c0-6.2-5.1-11.3-11.3-11.3s-11.3,5.1-11.3,11.3   c0,0.8,0.1,1.5,0.2,2.3c-1.9-2.6-4.9-4.2-8.3-4.2c-5.7,0-10.3,4.6-10.3,10.3c0,4,2.3,7.5,5.7,9.2C23.3,38,20.2,42.3,20.2,47.4z    M41.8,55c1.7-2.1,2.7-4.7,2.7-7.6c0-0.2,0-0.5,0-0.7c1.4,1.2,3.1,2,4.9,2.3v13.6L41.8,55z M61.4,38.6c0.7,0.8,1.6,1.5,2.5,2   c-1.1,0.3-2.1,0.8-3,1.4c0.3-1,0.5-2.1,0.5-3.2C61.4,38.8,61.4,38.7,61.4,38.6z M58.2,31.5c-0.9-0.9-2-1.6-3.2-2.1   c1.3-0.4,2.5-1,3.5-1.8c-0.2,0.9-0.4,1.9-0.4,2.9C58.2,30.8,58.2,31.1,58.2,31.5z M59.4,38.9c0,4.6-3.7,8.3-8.3,8.3   s-8.3-3.7-8.3-8.3s3.7-8.3,8.3-8.3S59.4,34.3,59.4,38.9z M51.4,62.6V49.2c2.2-0.1,4.2-0.8,5.9-2c-0.3,0.9-0.4,1.8-0.4,2.7   c0,2.1,0.7,4,1.8,5.5c-0.1,0-0.1,0.1-0.2,0.1L51.4,62.6z M74,49.9c0,4.2-3.4,7.6-7.6,7.6s-7.6-3.4-7.6-7.6s3.4-7.6,7.6-7.6   S74,45.7,74,49.9z M70.1,20.6c5.5,0,9.9,4.4,9.9,9.9s-4.4,9.9-9.9,9.9s-9.9-4.4-9.9-9.9S64.6,20.6,70.1,20.6z M51.7,9.3   c5.1,0,9.3,4.2,9.3,9.3c0,5.1-4.2,9.3-9.3,9.3s-9.3-4.2-9.3-9.3C42.4,13.5,46.6,9.3,51.7,9.3z M47.8,29.2c-4,1.4-6.9,5.1-6.9,9.6   c-1.1-1.1-2.5-2-4-2.6c3.4-1.7,5.7-5.2,5.7-9.2c0-0.6-0.1-1.3-0.2-1.9C43.8,26.9,45.7,28.4,47.8,29.2z M24,26.9   c0-4.6,3.7-8.3,8.3-8.3s8.3,3.7,8.3,8.3s-3.7,8.3-8.3,8.3S24,31.5,24,26.9z M32.3,37.2c5.6,0,10.2,4.6,10.2,10.2S38,57.6,32.3,57.6   S22.2,53,22.2,47.4S26.7,37.2,32.3,37.2z"/></g></svg>