<svg xmlns="http://www.w3.org/2000/svg" xmlns:xlink="http://www.w3.org/1999/xlink" version="1.1" x="0px" y="0px" viewBox="0 0 100 125" style="enable-background:new 0 0 100 100;" xml:space="preserve"><path d="M89,88H51V72.2227783c3.1047974,3.2277832,7.394043,5.1033936,11.9541016,5.1033936  c9.1567383,0,16.6064453-7.4492188,16.6064453-16.6064453c0-5.8037109-3.0043945-11.1259766-7.9101562-14.1416016  c1.2744141-2.0878906,1.9428711-4.4570312,1.9428711-6.9140625c0-6.3544922-4.4746094-11.7705078-10.5869141-13.0517578  c0.2753906-1.0761719,0.4145508-2.1708984,0.4145508-3.2666016C63.4208984,15.9873047,57.434082,10,50.0751953,10  s-13.3457031,5.9873047-13.3457031,13.3457031c0,1.0839844,0.1362305,2.1669922,0.4052734,3.2314453  c-6.1933594,1.2236328-10.7280273,6.6533203-10.7280273,13.0869141c0,2.4570312,0.668457,4.8261719,1.9428711,6.9140625  c-4.9057617,3.015625-7.9101562,8.3378906-7.9101562,14.1416016c0,9.1572266,7.449707,16.6064453,16.6064453,16.6064453  c4.5600586,0,8.8493042-1.8756104,11.9541016-5.1033936V88H11c-0.5522461,0-1,0.4472656-1,1s0.4477539,1,1,1h78  c0.5522461,0,1-0.4472656,1-1S89.5522461,88,89,88z M37.0458984,75.3261719  c-8.0541992,0-14.6064453-6.5527344-14.6064453-14.6064453c0-5.4296875,2.9902344-10.3798828,7.8037109-12.9199219  C30.5,47.6640625,30.6850586,47.4238281,30.7504883,47.140625c0.0654297-0.2822266,0.0048828-0.5800781-0.1660156-0.8144531  c-1.4248047-1.9560547-2.1777344-4.2597656-2.1777344-6.6621094c0-5.8115234,4.3515625-10.6591797,10.121582-11.2773438  c0.3032227-0.0322266,0.5751953-0.2011719,0.7382812-0.4589844s0.2001953-0.5751953,0.1000977-0.8632812  c-0.4228516-1.2167969-0.637207-2.4677734-0.637207-3.71875C38.7294922,17.0898438,43.8193359,12,50.0751953,12  s11.3457031,5.0898438,11.3457031,11.3457031c0,1.2568359-0.2167969,2.5146484-0.6445312,3.7382812  c-0.1000977,0.2861328-0.0649414,0.6025391,0.0957031,0.859375c0.1601562,0.2578125,0.4287109,0.4277344,0.7299805,0.4638672  c5.6958008,0.6777344,9.9912109,5.5166016,9.9912109,11.2568359c0,2.4023438-0.7529297,4.7060547-2.1777344,6.6621094  c-0.1708984,0.234375-0.2314453,0.5322266-0.1660156,0.8144531c0.0654297,0.2832031,0.2504883,0.5234375,0.5073242,0.6591797  c4.8134766,2.5400391,7.8037109,7.4912109,7.8037109,12.9199219c0,8.0537109-6.5522461,14.6064453-14.6064453,14.6064453  c-4.7746582,0-9.2150879-2.3329468-11.9541016-6.2386475V52.6171875l8.609375-8.6083984  c0.390625-0.390625,0.390625-1.0234375,0-1.4140625s-1.0234375-0.390625-1.4140625,0L51,49.7892456V36.1513672  c0-0.5527344-0.4477539-1-1-1s-1,0.4472656-1,1v13.6378784l-7.1953125-7.194519c-0.390625-0.390625-1.0234375-0.390625-1.4140625,0  s-0.390625,1.0234375,0,1.4140625L49,52.6171875v16.4703369C46.2609863,72.9932251,41.8205566,75.3261719,37.0458984,75.3261719z"/></svg>