<svg xmlns="http://www.w3.org/2000/svg" xmlns:xlink="http://www.w3.org/1999/xlink" version="1.1" x="0px" y="0px" viewBox="0 0 100 125" style="enable-background:new 0 0 100 100;" xml:space="preserve"><path d="M89,88H51v-9.3013306c2.2839355,2.0418091,5.262146,3.2129517,8.3662109,3.2129517  c6.9277344,0,12.5644531-5.6362305,12.5644531-12.5644531c0-3.2011719-1.2382812-6.2832031-3.4287109-8.6074219  c2.1904297-2.3237305,3.4287109-5.4052734,3.4287109-8.6069336s-1.2382812-6.2832031-3.4287109-8.6074219  c2.1904297-2.3242188,3.4287109-5.4057617,3.4287109-8.6074219c0-5.7382812-3.890625-10.7124023-9.3681641-12.1464844  c0.0009766-0.0688477,0.0019531-0.1376953,0.0019531-0.2070312C62.5644531,15.6362305,56.9277344,10,50,10  s-12.5644531,5.6362305-12.5644531,12.5644531c0,0.0693359,0.0009766,0.1381836,0.0019531,0.2070312  c-5.4775391,1.434082-9.3681641,6.4082031-9.3681641,12.1464844c0,3.2016602,1.2382812,6.2832031,3.4287109,8.6074219  c-2.1904297,2.3242188-3.4287109,5.4057617-3.4287109,8.6074219s1.2382812,6.2832031,3.4287109,8.6069336  c-2.1904297,2.3242188-3.4287109,5.40625-3.4287109,8.6074219c0,6.9282227,5.6367188,12.5644531,12.5644531,12.5644531  c3.1040649,0,6.0822754-1.1711426,8.3662109-3.2129517V88H11c-0.5527344,0-1,0.4477539-1,1s0.4472656,1,1,1h78  c0.5527344,0,1-0.4477539,1-1S89.5527344,88,89,88z M40.6337891,79.9116211  c-5.8251953,0-10.5644531-4.7392578-10.5644531-10.5644531c0-2.9887695,1.2861328-5.8544922,3.5273438-7.8623047  c0.2119141-0.1899414,0.3330078-0.4609375,0.3330078-0.7451172s-0.1210938-0.5551758-0.3330078-0.7451172  c-2.2412109-2.0073242-3.5273438-4.8730469-3.5273438-7.8618164c0-2.9892578,1.2861328-5.8549805,3.5273438-7.8623047  c0.2119141-0.1899414,0.3330078-0.4609375,0.3330078-0.7451172s-0.1210938-0.5551758-0.3330078-0.7451172  c-2.2412109-2.0073242-3.5273438-4.8730469-3.5273438-7.8623047c0-5.0742188,3.6171875-9.4375,8.6005859-10.3745117  c0.5039062-0.0947266,0.8544922-0.5551758,0.8115234-1.065918c-0.0244141-0.3017578-0.0458984-0.6044922-0.0458984-0.9130859  C39.4355469,16.7392578,44.1748047,12,50,12s10.5644531,4.7392578,10.5644531,10.5644531  c0,0.3085938-0.0214844,0.6113281-0.0458984,0.9130859c-0.0429688,0.5107422,0.3076172,0.9711914,0.8115234,1.065918  c4.9833984,0.9370117,8.6005859,5.300293,8.6005859,10.3745117c0,2.9892578-1.2861328,5.8549805-3.5273438,7.8623047  c-0.2119141,0.1899414-0.3330078,0.4609375-0.3330078,0.7451172s0.1210938,0.5551758,0.3330078,0.7451172  c2.2412109,2.0073242,3.5273438,4.8730469,3.5273438,7.8623047c0,2.9887695-1.2861328,5.8544922-3.5273438,7.8618164  c-0.2119141,0.1899414-0.3330078,0.4609375-0.3330078,0.7451172s0.1210938,0.5551758,0.3330078,0.7451172  c2.2412109,2.0078125,3.5273438,4.8735352,3.5273438,7.8623047c0,5.8251953-4.7392578,10.5644531-10.5644531,10.5644531  c-3.2703247,0-6.369873-1.5536499-8.3662109-4.1547852V62.0288086l6.7314453-6.7314453  c0.390625-0.390625,0.390625-1.0234375,0-1.4140625s-1.0234375-0.390625-1.4140625,0L51,59.2006836V46.4990234l6.7314453-6.730957  c0.390625-0.390625,0.390625-1.0234375,0-1.4140625s-1.0234375-0.390625-1.4140625,0L51,43.6710205V30.9892578  c0-0.5522461-0.4472656-1-1-1s-1,0.4477539-1,1v12.6817627l-5.3173828-5.3170166c-0.390625-0.390625-1.0234375-0.390625-1.4140625,0  s-0.390625,1.0234375,0,1.4140625L49,46.4990234v12.7016602l-5.3173828-5.3173828  c-0.390625-0.390625-1.0234375-0.390625-1.4140625,0s-0.390625,1.0234375,0,1.4140625L49,62.0288086v13.7280273  C47.0036621,78.3579712,43.9041138,79.9116211,40.6337891,79.9116211z"/></svg>