<svg xmlns="http://www.w3.org/2000/svg" xmlns:xlink="http://www.w3.org/1999/xlink" version="1.1" x="0px" y="0px" viewBox="0 0 100 125" style="enable-background:new 0 0 100 100;" xml:space="preserve"><style type="text/css">
	.st0{fill:none;stroke:#000000;stroke-width:2;stroke-linecap:round;stroke-linejoin:round;stroke-miterlimit:10;}
</style><g><path d="M49,61.1v26.6c0,0.6,0.4,1,1,1s1-0.4,1-1V61.1c13.4-0.5,24.1-11.6,24.1-25.1C75.1,22.2,63.8,11,50,11S24.9,22.2,24.9,36.1   C24.9,49.6,35.6,60.6,49,61.1z M50,13c12.7,0,23.1,10.4,23.1,23.1c0,12.4-9.8,22.5-22.1,23.1v-6l9.4-9.4c0.4-0.4,0.4-1,0-1.4   s-1-0.4-1.4,0l-8,8V36.2c0-0.6-0.4-1-1-1s-1,0.4-1,1v14.1l-8-8c-0.4-0.4-1-0.4-1.4,0s-0.4,1,0,1.4l9.4,9.4v6   c-12.3-0.5-22.1-10.7-22.1-23.1C26.9,23.3,37.3,13,50,13z"/></g></svg>