<svg xmlns="http://www.w3.org/2000/svg" xmlns:xlink="http://www.w3.org/1999/xlink" version="1.1" x="0px" y="0px" viewBox="0 0 100 125" style="enable-background:new 0 0 100 100;" xml:space="preserve"><path d="M89,88H51V62.7832031c2.4375,2.0914917,5.4970093,3.1777344,8.5888672,3.1777344  c2.6967773-0.0004883,5.418457-0.8276367,7.7700195-2.5356445c5.4296875-3.9448242,6.9995117-11.2148438,3.8481445-17.0019531  c5.9511719-2.8291016,8.9541016-9.6337891,6.8803711-16.0166016c-2.0742188-6.3833008-8.4995117-10.1264648-14.980957-8.9135742  C62.2543945,14.9589844,56.7114258,10,50,10s-12.2543945,4.9589844-13.1064453,11.4931641  c-6.4833984-1.2133789-12.9072266,2.5307617-14.980957,8.9135742s0.9291992,13.1875,6.8803711,16.0166016  c-3.1513672,5.7871094-1.581543,13.0571289,3.8481445,17.0019531C37.6888428,67.0926514,44.435791,66.6940918,49,62.7756348V88H11  c-0.5522461,0-1,0.4477539-1,1s0.4477539,1,1,1h78c0.5522461,0,1-0.4477539,1-1S89.5522461,88,89,88z M33.8168945,61.8071289  c-4.8852539-3.5488281-6.0883789-10.2700195-2.7397461-15.3012695c0.1694336-0.2543945,0.2128906-0.5727539,0.1186523-0.8632812  c-0.0947266-0.2905273-0.3168945-0.5219727-0.6035156-0.628418c-5.6660156-2.1020508-8.6430664-8.246582-6.7773438-13.9892578  c1.8657227-5.7431641,7.8852539-8.9624023,13.7060547-7.3339844c0.2919922,0.0820312,0.609375,0.0263672,0.8574219-0.1538086  c0.2470703-0.1796875,0.3989258-0.4624023,0.4111328-0.7680664C39.0380859,16.7304688,43.9619141,12,50,12  s10.9619141,4.7304688,11.2104492,10.769043c0.012207,0.3056641,0.1640625,0.5883789,0.4111328,0.7680664  c0.2480469,0.1801758,0.5649414,0.2363281,0.8574219,0.1538086c5.8193359-1.6328125,11.8398438,1.5908203,13.7060547,7.3339844  c1.8657227,5.7426758-1.1113281,11.887207-6.7773438,13.9892578c-0.2866211,0.1064453-0.5087891,0.3378906-0.6035156,0.628418  c-0.0942383,0.2905273-0.0507812,0.6088867,0.1186523,0.8632812c3.3486328,5.03125,2.1455078,11.7524414-2.7397461,15.3012695  C61.3877563,65.2915039,54.7871094,64.4467163,51,59.9311523V46.6176758l8.609375-8.609375  c0.390625-0.390625,0.390625-1.0234375,0-1.4140625s-1.0234375-0.390625-1.4140625,0L51,43.7895508V30.1518555  c0-0.5522461-0.4477539-1-1-1s-1,0.4477539-1,1v13.6376953l-7.1953125-7.1953125c-0.390625-0.390625-1.0234375-0.390625-1.4140625,0  s-0.390625,1.0234375,0,1.4140625L49,46.6176758v13.3135376C45.2124634,64.4481812,38.6132202,65.2915039,33.8168945,61.8071289z"/></svg>