<svg xmlns="http://www.w3.org/2000/svg" xmlns:xlink="http://www.w3.org/1999/xlink" version="1.1" x="0px" y="0px" viewBox="0 0 100 125" style="enable-background:new 0 0 100 100;" xml:space="preserve"><style type="text/css">
	.st0{fill:none;stroke:#000000;stroke-width:2;stroke-linecap:round;stroke-linejoin:round;stroke-miterlimit:10;}
</style><path d="M18.426,32.02c0,0.39,0.227,0.744,0.581,0.908c0.354,0.162,0.771,0.105,1.067-0.146c0.028-0.024,2.92-2.461,7.077-3.679  c1.857-0.544,3.652-0.755,5.382-0.652c-1.012,0.322-1.99,0.803-2.888,1.471c-4.36,3.243-5.27,9.43-2.026,13.791  c0.191,0.257,0.49,0.403,0.803,0.403c0.068,0,0.137-0.007,0.205-0.021c0.382-0.08,0.683-0.375,0.77-0.755  c0.007-0.027,0.658-2.795,2.625-5.402c2.332-3.091,5.448-4.575,9.254-4.472c-0.217,11.918,0.489,36.075,8.395,54.727h-2.799  c-0.553,0-1,0.447-1,1s0.447,1,1,1h12.556c0.553,0,1-0.447,1-1s-0.447-1-1-1h-3.649c7.141-10.354,8.161-22.368,8.196-28.035  c5.445-0.083,6.851,5.575,6.909,5.825c0.087,0.38,0.388,0.675,0.77,0.755c0.068,0.015,0.137,0.021,0.205,0.021  c0.312,0,0.611-0.146,0.803-0.403c2.136-2.871,1.537-6.946-1.335-9.083c-0.06-0.045-0.123-0.081-0.184-0.123  c3.072,0.491,5.357,2.374,5.52,2.512c0.297,0.251,0.715,0.308,1.066,0.144c0.354-0.164,0.58-0.517,0.58-0.906  c0-4.53-3.686-8.216-8.216-8.216c-0.19,0-0.375,0.016-0.562,0.028c2.615-0.89,5.187-0.371,5.37-0.332  c0.38,0.084,0.776-0.062,1.012-0.372s0.27-0.729,0.086-1.074c-1.941-3.649-6.491-5.043-10.144-3.099  c-1.268,0.674-2.287,1.677-2.981,2.895c-0.678-1.187-1.681-2.207-2.975-2.895c-3.651-1.94-8.2-0.551-10.144,3.099  c-0.184,0.344-0.149,0.764,0.086,1.074s0.633,0.456,1.012,0.372c0.188-0.04,2.819-0.579,5.466,0.355  c-0.205-0.015-0.409-0.031-0.617-0.031c-4.508,0-8.175,3.667-8.175,8.175c0,0.39,0.227,0.742,0.58,0.906  c0.352,0.164,0.769,0.106,1.067-0.144c0.164-0.14,2.542-2.103,5.708-2.532c-0.082,0.055-0.165,0.104-0.245,0.164  c-2.872,2.137-3.471,6.212-1.335,9.083c0.191,0.257,0.49,0.402,0.802,0.402c0.068,0,0.137-0.007,0.204-0.021  c0.381-0.078,0.682-0.373,0.771-0.751c0.06-0.254,1.465-5.885,6.876-5.829c-0.067,5.65-1.16,18.009-8.641,28.036h-1.468  c-8.085-18.42-8.792-42.764-8.572-54.681c10.174-0.953,12.702,9.385,12.805,9.83c0.089,0.379,0.39,0.673,0.771,0.753  c0.068,0.014,0.137,0.021,0.205,0.021c0.312,0,0.61-0.146,0.802-0.402c3.243-4.361,2.334-10.548-2.026-13.791  c-0.907-0.675-1.895-1.16-2.918-1.481c1.643-0.069,3.345,0.146,5.1,0.654c4.194,1.213,7.153,3.694,7.183,3.719  c0.298,0.253,0.715,0.308,1.067,0.146c0.354-0.164,0.58-0.518,0.58-0.907c0-6.968-5.668-12.637-12.636-12.637  c-1.911,0-3.717,0.439-5.342,1.201c5.342-4.526,12.819-2.992,13.229-2.902c0.385,0.082,0.775-0.062,1.011-0.373  s0.269-0.729,0.086-1.073c-1.44-2.708-3.849-4.692-6.782-5.589c-2.932-0.893-6.038-0.596-8.747,0.845  c-2.356,1.254-4.088,3.22-5.091,5.491c-1.003-2.27-2.735-4.237-5.091-5.491c-2.708-1.441-5.816-1.739-8.747-0.845  c-2.934,0.896-5.342,2.881-6.782,5.589c-0.184,0.345-0.149,0.764,0.086,1.074c0.236,0.311,0.635,0.457,1.012,0.372  c0.034-0.008,3.362-0.722,7.185,0.069c2.372,0.491,4.372,1.447,6.016,2.828c-1.6-0.74-3.375-1.164-5.25-1.164  C24.065,19.447,18.426,25.087,18.426,32.02z M71.896,61.829c0.062,0.425,0.063,0.849,0.008,1.263  c-1.083-2.05-3.035-4.198-6.091-4.791c1.395-0.543,3.03-0.381,4.319,0.577C71.095,59.594,71.721,60.642,71.896,61.829z   M75.946,56.81c-1.52-0.839-3.776-1.766-6.327-1.766c-1.672,0-3.47,0.397-5.271,1.479c0.935-2.252,3.157-3.841,5.743-3.841  C72.787,52.683,75.087,54.406,75.946,56.81z M64.117,50.848c0.43-1.404,1.38-2.559,2.677-3.248c0.807-0.429,1.688-0.646,2.576-0.646  c0.54,0,1.083,0.08,1.613,0.242c0.707,0.216,1.351,0.563,1.903,1.021c-2.575,0.007-6.585,0.696-9.007,4.47  C63.854,52.073,63.933,51.452,64.117,50.848z M52.872,48.217c1.666-1.374,4.065-1.693,6.087-0.617  c1.297,0.689,2.247,1.844,2.677,3.248c0.185,0.604,0.263,1.225,0.238,1.838C59.452,48.915,55.446,48.224,52.872,48.217z   M55.701,52.703c2.564,0,4.768,1.57,5.7,3.8c-4.514-2.701-9.01-1.093-11.512,0.286C50.748,54.409,53.029,52.703,55.701,52.703z   M54.059,63.092c-0.056-0.414-0.055-0.838,0.008-1.263c0.175-1.188,0.801-2.235,1.764-2.951c0.804-0.598,1.743-0.886,2.675-0.886  c0.562,0,1.12,0.104,1.645,0.309C57.094,58.895,55.142,61.042,54.059,63.092z M20.63,29.945c0.967-4.84,5.248-8.498,10.367-8.498  c5.021,0,9.236,3.519,10.309,8.22C32.945,23.544,24.319,27.614,20.63,29.945z M28.206,40.688c-0.493-1.257-0.652-2.627-0.451-3.999  c0.305-2.076,1.4-3.909,3.084-5.161c1.37-1.02,2.996-1.555,4.673-1.555c0.384,0,0.771,0.028,1.158,0.085  c1.271,0.187,2.452,0.67,3.464,1.403C32.935,31.832,29.555,37.471,28.206,40.688z M57.72,36.688  c0.201,1.372,0.042,2.741-0.451,3.999c-1.349-3.217-4.727-8.854-11.923-9.226c2.704-1.953,6.475-2.03,9.29,0.065  C56.319,32.779,57.415,34.612,57.72,36.688z M64.639,29.978c-2.264-1.433-6.389-3.524-11.178-3.524c-3.044,0-6.358,0.847-9.63,3.246  c1.074-4.737,5.317-8.284,10.375-8.284C59.361,21.415,63.672,25.103,64.639,29.978z M48.6,13.289  c1.391-0.74,2.909-1.115,4.441-1.115c0.931,0,1.866,0.139,2.782,0.418c1.747,0.534,3.269,1.535,4.427,2.891  c-4.01-0.265-12.34,0.281-16.413,8.411C42.843,19.788,44.702,15.362,48.6,13.289z M26.37,15.435c-0.539,0-1.037,0.019-1.481,0.048  c1.158-1.355,2.68-2.357,4.427-2.891c2.419-0.738,4.987-0.493,7.224,0.697c3.897,2.073,5.756,6.498,4.762,10.604  C37.68,16.663,30.698,15.435,26.37,15.435z"/></svg>