<svg xmlns="http://www.w3.org/2000/svg" xmlns:xlink="http://www.w3.org/1999/xlink" version="1.1" x="0px" y="0px" viewBox="0 0 100 125" style="enable-background:new 0 0 100 100;" xml:space="preserve"><path d="M89,88H51V74.8551025c8.2017822-0.5010986,14.7255859-7.3130493,14.7255859-15.6383057  c0-2.9853516-0.8398438-5.8686523-2.4355469-8.3823242c1.5957031-2.5141602,2.4355469-5.3974609,2.4355469-8.3823242  c0-2.9853516-0.8398438-5.8691406-2.4355469-8.3828125c1.5957031-2.5136719,2.4355469-5.3969727,2.4355469-8.3823242  C65.7255859,17.0371094,58.6884766,10,50.0380859,10c-8.6494141,0-15.6865234,7.0371094-15.6865234,15.6870117  c0,2.9858398,0.8398438,5.8696289,2.4345703,8.3823242c-1.5947266,2.5126953-2.4345703,5.3964844-2.4345703,8.3828125  c0,2.9853516,0.8398438,5.8691406,2.4345703,8.3823242c-1.5947266,2.5126953-2.4345703,5.3964844-2.4345703,8.3823242  c0,8.2994995,6.4833374,15.0959473,14.6484375,15.6344604V88H11c-0.5527344,0-1,0.4477539-1,1s0.4472656,1,1,1h78  c0.5527344,0,1-0.4477539,1-1S89.5527344,88,89,88z M36.3515625,59.2167969c0-2.8041992,0.8496094-5.5048828,2.4560547-7.8105469  c0.2392578-0.34375,0.2392578-0.7998047,0-1.1435547c-1.6064453-2.3061523-2.4560547-5.0068359-2.4560547-7.8105469  c0-2.8041992,0.8496094-5.5053711,2.4560547-7.8110352c0.2392578-0.34375,0.2392578-0.7998047,0-1.1435547  c-1.6064453-2.3056641-2.4560547-5.0063477-2.4560547-7.8105469C36.3515625,18.1401367,42.4912109,12,50.0380859,12  s13.6875,6.1401367,13.6875,13.6870117c0,2.8032227-0.8496094,5.5039062-2.4570312,7.8105469  c-0.2392578,0.34375-0.2392578,0.7998047,0,1.1435547c1.6074219,2.3066406,2.4570312,5.0073242,2.4570312,7.8110352  c0,2.8027344-0.8496094,5.503418-2.4570312,7.8105469c-0.2392578,0.34375-0.2392578,0.7998047,0,1.1435547  c1.6074219,2.3066406,2.4570312,5.0073242,2.4570312,7.8105469c0,7.222168-5.6276245,13.1410522-12.7255859,13.6383057V59.3232422  l6.9082031-6.9082031c0.390625-0.390625,0.390625-1.0234375,0-1.4140625s-1.0234375-0.390625-1.4140625,0L51,56.4951172V46.125  l5.2460938-5.2460938c0.390625-0.390625,0.390625-1.0234375,0-1.4140625s-1.0234375-0.390625-1.4140625,0L51,43.296875V31.8144531  c0-0.5522461-0.4472656-1-1-1s-1,0.4477539-1,1V43.296875l-3.8320312-3.8320312c-0.390625-0.390625-1.0234375-0.390625-1.4140625,0  s-0.390625,1.0234375,0,1.4140625L49,46.125v10.3701172l-5.4941406-5.4941406c-0.390625-0.390625-1.0234375-0.390625-1.4140625,0  s-0.390625,1.0234375,0,1.4140625L49,59.3232422v13.5279541C41.9378662,72.3172607,36.3515625,66.413269,36.3515625,59.2167969z"/></svg>