<svg xmlns="http://www.w3.org/2000/svg" xmlns:xlink="http://www.w3.org/1999/xlink" version="1.1" x="0px" y="0px" viewBox="0 0 100 125" style="enable-background:new 0 0 100 100;" xml:space="preserve"><path d="M89,88H51V68.7154541c3.4749146-0.3793945,6.4537964-2.7044067,7.6542969-5.9991455  c0.2011719,0.012207,0.3955078,0.0180664,0.5869141,0.0180664c6.2861328,0,11.3994141-5.1137695,11.3994141-11.3994141  c0-0.9223633-0.1123047-1.8349609-0.3339844-2.7275391c5.0205078-0.0742188,9.0810547-4.1816406,9.0810547-9.2192383  c0-3.8950195-2.4521484-7.340332-6.0595703-8.6542969c0.0126953-0.203125,0.0185547-0.3969727,0.0185547-0.5874023  c0-6.2856445-5.1132812-11.3994141-11.3994141-11.3994141c-0.921875,0-1.8339844,0.1123047-2.7275391,0.3349609  C59.1455078,14.0610352,55.0380859,10,50,10c-3.8955078,0-7.3398438,2.4521484-8.6542969,6.0595703  c-0.2021484-0.012207-0.3955078-0.0180664-0.5869141-0.0180664c-6.2861328,0-11.3994141,5.1137695-11.3994141,11.3994141  c0,0.9223633,0.1123047,1.8349609,0.3339844,2.7275391c-5.0205078,0.0742188-9.0810547,4.1816406-9.0810547,9.2197266  c0,3.8950195,2.4521484,7.340332,6.0595703,8.6538086c-0.0126953,0.2036133-0.0185547,0.3974609-0.0185547,0.5874023  c0,6.2856445,5.1132812,11.3994141,11.3994141,11.3994141c0.921875,0,1.8349609-0.1123047,2.7275391-0.3344727  c0.0692139,4.68396,3.6494141,8.52948,8.2197266,9.0250244V88H11c-0.5527344,0-1,0.4477539-1,1s0.4472656,1,1,1h78  c0.5527344,0,1-0.4477539,1-1S89.5527344,88,89,88z M42.7792969,59.5556641c0-0.3354492,0.03125-0.6992188,0.0957031-1.1118164  c0.0546875-0.3544922-0.0839844-0.7114258-0.3642578-0.9355469c-0.1806641-0.1435547-0.4013672-0.2182617-0.6240234-0.2182617  c-0.125,0-0.25,0.0234375-0.3691406,0.0708008c-1.1162109,0.4433594-2.2822266,0.6679688-3.4648438,0.6679688  c-5.1826172,0-9.3994141-4.2167969-9.3994141-9.3994141c0-0.3486328,0.0263672-0.722168,0.0820312-1.1762695  c0.0615234-0.496582-0.2539062-0.9624023-0.7382812-1.0898438c-3.1708984-0.8325195-5.3847656-3.7006836-5.3847656-6.9750977  c0-3.9814453,3.2382812-7.2207031,7.2197266-7.2207031c0.3378906,0,0.6914062,0.0302734,1.1123047,0.0957031  c0.359375,0.0537109,0.7119141-0.0849609,0.9355469-0.3647461c0.2236328-0.2807617,0.2792969-0.6591797,0.1474609-0.9926758  c-0.4433594-1.1152344-0.6679688-2.28125-0.6679688-3.4648438c0-5.1826172,4.2167969-9.3994141,9.3994141-9.3994141  c0.3525391,0,0.7255859,0.0258789,1.1748047,0.0820312c0.5009766,0.0625,0.9638672-0.253418,1.0908203-0.7382812  C43.8574219,14.2143555,46.7255859,12,50,12c3.9814453,0,7.2207031,3.2392578,7.2207031,7.2207031  c0,0.3354492-0.03125,0.6992188-0.0957031,1.1118164c-0.0546875,0.3544922,0.0839844,0.7114258,0.3642578,0.9355469  c0.28125,0.2236328,0.6621094,0.2783203,0.9931641,0.1474609c1.1171875-0.4433594,2.2832031-0.668457,3.4648438-0.668457  c5.1826172,0,9.3994141,4.2167969,9.3994141,9.3994141c0,0.3486328-0.0263672,0.722168-0.0820312,1.1767578  c-0.0615234,0.4970703,0.2539062,0.9624023,0.7382812,1.0898438c3.1708984,0.8325195,5.3847656,3.7006836,5.3847656,6.9750977  c0,3.9814453-3.2382812,7.2202148-7.2197266,7.2202148c-0.3349609,0-0.6992188-0.03125-1.1123047-0.0952148  c-0.359375-0.0541992-0.7119141,0.0849609-0.9355469,0.3647461c-0.2236328,0.2807617-0.2792969,0.659668-0.1474609,0.9926758  c0.4433594,1.1147461,0.6679688,2.2802734,0.6679688,3.4643555c0,5.1826172-4.2167969,9.3994141-9.3994141,9.3994141  c-0.3544922,0-0.7285156-0.0258789-1.1748047-0.081543c-0.5-0.0644531-0.9638672,0.2539062-1.0908203,0.7382812  C56.2289429,64.2332764,53.843811,66.2929077,51,66.6923218V45.4858398l6.4736328-6.4736328  c0.390625-0.390625,0.390625-1.0234375,0-1.4140625s-1.0234375-0.390625-1.4140625,0L51,42.6577148V32.0834961  c0-0.5522461-0.4472656-1-1-1s-1,0.4477539-1,1v10.5541992l-5.0576172-5.0576172c-0.390625-0.390625-1.0234375-0.390625-1.4140625,0  s-0.390625,1.0234375,0,1.4140625L49,45.4658203v21.2329712C45.491333,66.2092285,42.7792969,63.1969604,42.7792969,59.5556641z"/></svg>