<svg xmlns="http://www.w3.org/2000/svg" xmlns:xlink="http://www.w3.org/1999/xlink" version="1.1" x="0px" y="0px" viewBox="0 0 100 125" style="enable-background:new 0 0 100 100;" xml:space="preserve"><path d="M89,88H51V61.2044678c3.4841919,3.3187256,8.0722046,5.1968994,12.9526367,5.1968994  c10.394043,0,18.8505859-8.4560547,18.8505859-18.8505859c0-4.8261719-1.8168945-9.3789062-5.1308594-12.8896484  c0.4321289-1.3339844,0.6508789-2.7041016,0.6508789-4.0820312c0-7.3535156-5.9824219-13.3359375-13.3354492-13.3359375  c-0.4018555,0-0.8129883,0.0224609-1.2631836,0.0703125C60.6303711,12.7216797,55.5473633,10,50,10  c-5.534668,0-10.612793,2.7128906-13.7089844,7.2900391c-0.3637695-0.0322266-0.7006836-0.046875-1.0322266-0.046875  c-7.3530273,0-13.3354492,5.9824219-13.3354492,13.3359375c0,1.3085938,0.1982422,2.6132812,0.590332,3.8876953  c-3.4335938,3.5351562-5.3168945,8.1572266-5.3168945,13.0839844c0,10.3945312,8.456543,18.8505859,18.8505859,18.8505859  c4.8804321,0,9.4684448-1.8781738,12.9526367-5.1968994V88H11c-0.5522461,0-1,0.4472656-1,1s0.4477539,1,1,1h78  c0.5522461,0,1-0.4472656,1-1S89.5522461,88,89,88z M36.0473633,64.4013672  c-9.2915039,0-16.8505859-7.5595703-16.8505859-16.8505859c0-4.5898438,1.8310547-8.8847656,5.1552734-12.0927734  c0.2832031-0.2734375,0.3798828-0.6875,0.2470703-1.0576172c-0.4482422-1.2490234-0.6757812-2.5351562-0.6757812-3.8212891  c0-6.2509766,5.0849609-11.3359375,11.3354492-11.3359375c0.4282227,0,0.8764648,0.03125,1.4111328,0.0986328  c0.3935547,0.0449219,0.7675781-0.1328125,0.9736328-0.4628906C40.3305664,14.5712891,44.949707,12,50,12  c5.0654297,0,9.6923828,2.5839844,12.3764648,6.9111328c0.2089844,0.3378906,0.5961914,0.5224609,0.9921875,0.4628906  c0.6181641-0.0898438,1.1328125-0.1308594,1.6191406-0.1308594c6.2504883,0,11.3354492,5.0849609,11.3354492,11.3359375  c0,1.3466797-0.2475586,2.6875-0.7353516,3.9853516c-0.1386719,0.3681641-0.0478516,0.7841797,0.2314453,1.0615234  c3.2138672,3.1894531,4.9838867,7.4238281,4.9838867,11.9248047c0,9.2910156-7.559082,16.8505859-16.8505859,16.8505859  c-5.0372925,0-9.7329102-2.2312622-12.9526367-6.1140137v-4.670166l8.609375-8.6083984  c0.390625-0.390625,0.390625-1.0234375,0-1.4140625s-1.0234375-0.390625-1.4140625,0L51,50.7892456V37.1513672  c0-0.5527344-0.4477539-1-1-1s-1,0.4472656-1,1v13.6378784l-7.1953125-7.194519c-0.390625-0.390625-1.0234375-0.390625-1.4140625,0  s-0.390625,1.0234375,0,1.4140625L49,53.6171875v4.670166C45.7802734,62.170105,41.0846558,64.4013672,36.0473633,64.4013672z"/></svg>