<svg xmlns="http://www.w3.org/2000/svg" xmlns:xlink="http://www.w3.org/1999/xlink" version="1.1" x="0px" y="0px" viewBox="0 0 100 125" style="enable-background:new 0 0 100 100;" xml:space="preserve"><path d="M89,88H51V68.3849487c2.8521729-0.2781982,5.43927-1.7272339,7.1640625-4.0392456  c3.0712891,0.9570312,6.3876953,0.4238281,9.0117188-1.4829102s4.15625-4.8955078,4.1962891-8.1137695  c3.0478516-1.0322266,5.4169922-3.4125977,6.4199219-6.4970703c1.0019531-3.0849609,0.4833984-6.4033203-1.375-9.0302734  c1.8583984-2.6269531,2.3769531-5.9448242,1.375-9.0297852c-1.0029297-3.0849609-3.3720703-5.465332-6.4199219-6.4975586  c-0.0400391-3.2177734-1.5722656-6.206543-4.1962891-8.1137695c-2.6230469-1.9067383-5.9384766-2.4399414-9.0117188-1.4829102  C56.2402344,11.5180664,53.2431641,10,50,10s-6.2402344,1.5180664-8.1640625,4.0976562  c-3.0742188-0.9575195-6.3886719-0.4233398-9.0117188,1.4829102c-2.6240234,1.9072266-4.15625,4.8959961-4.1962891,8.1137695  c-3.0478516,1.0322266-5.4169922,3.4125977-6.4199219,6.4975586c-1.0019531,3.0849609-0.4833984,6.402832,1.375,9.0297852  c-1.8583984,2.6269531-2.3769531,5.9453125-1.375,9.0302734c1.0029297,3.0844727,3.3720703,5.4648438,6.4199219,6.4970703  c0.0400391,3.2182617,1.5722656,6.2070312,4.1962891,8.1137695s5.9404297,2.4399414,9.0117188,1.4829102  C43.56073,66.6577148,46.1478271,68.1067505,49,68.3849487V88H11c-0.5527344,0-1,0.4477539-1,1s0.4472656,1,1,1h78  c0.5527344,0,1-0.4477539,1-1S89.5527344,88,89,88z M43.0712891,62.6137695  c-0.1884766-0.2973633-0.5117188-0.4658203-0.8457031-0.4658203c-0.1240234,0-0.2490234,0.0229492-0.3701172,0.0708008  C39.21875,63.2680664,36.2822266,62.9038086,34,61.2446289c-2.2841797-1.6591797-3.5380859-4.3398438-3.3544922-7.1713867  c0.03125-0.4799805-0.2841797-0.9145508-0.7509766-1.0336914c-2.7490234-0.7006836-4.9121094-2.7216797-5.7841797-5.4057617  s-0.3105469-5.590332,1.5019531-7.7734375c0.3076172-0.3701172,0.3076172-0.9072266,0-1.2773438  c-1.8125-2.1831055-2.3740234-5.0888672-1.5019531-7.7729492c0.8720703-2.6845703,3.0351562-4.7055664,5.7841797-5.40625  c0.4667969-0.1191406,0.7822266-0.5537109,0.7509766-1.0336914C30.4619141,21.5390625,31.7158203,18.8583984,34,17.1987305  c2.2832031-1.6586914,5.2197266-2.0229492,7.8554688-0.9741211c0.4472656,0.1772461,0.9570312,0.0126953,1.2158203-0.3950195  C44.5869141,13.4316406,47.1767578,12,50,12s5.4130859,1.4316406,6.9287109,3.8295898  c0.2587891,0.4077148,0.7695312,0.5722656,1.2158203,0.3950195C60.7792969,15.1767578,63.7167969,15.5400391,66,17.1987305  c2.2841797,1.659668,3.5380859,4.340332,3.3544922,7.1713867c-0.03125,0.4799805,0.2841797,0.9145508,0.7509766,1.0336914  c2.7490234,0.7006836,4.9121094,2.7216797,5.7841797,5.40625c0.8720703,2.684082,0.3105469,5.5898438-1.5019531,7.7729492  c-0.3076172,0.3701172-0.3076172,0.9072266,0,1.2773438c1.8125,2.1831055,2.3740234,5.0893555,1.5019531,7.7734375  s-3.0351562,4.7050781-5.7841797,5.4057617c-0.4667969,0.1191406-0.7822266,0.5537109-0.7509766,1.0336914  c0.1835938,2.831543-1.0703125,5.512207-3.3544922,7.1713867c-2.2832031,1.6601562-5.2216797,2.0229492-7.8554688,0.9741211  c-0.4462891-0.1762695-0.9570312-0.0126953-1.2158203,0.3950195C55.5941772,64.7252197,53.4262695,66.0846558,51,66.3800659  V51.6176758l8.609375-8.609375c0.390625-0.390625,0.390625-1.0234375,0-1.4140625s-1.0234375-0.390625-1.4140625,0L51,48.7895508  V35.1518555c0-0.5522461-0.4472656-1-1-1s-1,0.4477539-1,1v13.6376953l-7.1953125-7.1953125  c-0.390625-0.390625-1.0234375-0.390625-1.4140625,0s-0.390625,1.0234375,0,1.4140625L49,51.6176758v14.7623901  C46.5737305,66.0846558,44.4058228,64.7252197,43.0712891,62.6137695z"/></svg>