<svg xmlns="http://www.w3.org/2000/svg" xmlns:xlink="http://www.w3.org/1999/xlink" version="1.1" x="0px" y="0px" viewBox="0 0 100 125" style="enable-background:new 0 0 100 100;" xml:space="preserve"><style type="text/css">
	.st0{fill:none;stroke:#000000;stroke-width:2;stroke-linecap:round;stroke-linejoin:round;stroke-miterlimit:10;}
</style><path d="M19.083,37.972c0,0.39,0.227,0.744,0.581,0.908c0.354,0.163,0.771,0.105,1.068-0.146c0.038-0.032,3.812-3.212,9.229-4.8  c3.026-0.886,5.926-1.106,8.69-0.679c-1.836,0.326-3.626,1.058-5.221,2.245c-5.493,4.087-6.638,11.88-2.552,17.373  c0.191,0.257,0.49,0.403,0.802,0.402c0.068,0,0.137-0.007,0.205-0.021c0.381-0.08,0.682-0.374,0.77-0.754  c0.009-0.036,0.885-3.719,3.474-7.126c3.237-4.259,7.603-6.203,12.982-5.8v48.424h-2.564c-0.552,0-1,0.447-1,1s0.448,1,1,1h7.127  c0.552,0,1-0.447,1-1s-0.448-1-1-1H51.11v-48.42c5.398-0.416,9.783,1.525,13.028,5.796c2.589,3.407,3.465,7.09,3.474,7.126  c0.088,0.38,0.388,0.674,0.77,0.754c0.068,0.014,0.137,0.021,0.205,0.021c0.312,0,0.611-0.146,0.802-0.402  c4.086-5.492,2.941-13.286-2.552-17.373c-1.631-1.213-3.466-1.954-5.345-2.268c2.687-0.376,5.5-0.152,8.43,0.697  c5.462,1.585,9.309,4.813,9.347,4.846c0.296,0.252,0.712,0.31,1.067,0.146c0.354-0.164,0.58-0.518,0.58-0.907  c0-8.822-7.178-16-16-16c-3.185,0-6.148,0.946-8.644,2.557c2.385-2.649,5.531-4.401,9.425-5.219  c4.993-1.047,9.404-0.111,9.448-0.103c0.379,0.083,0.775-0.062,1.011-0.373c0.235-0.311,0.269-0.729,0.086-1.073  c-3.758-7.062-12.562-9.753-19.627-5.996c-3.196,1.7-5.485,4.438-6.698,7.575c-1.213-3.138-3.502-5.875-6.698-7.575  c-7.065-3.757-15.869-1.067-19.627,5.996c-0.183,0.345-0.149,0.764,0.086,1.074s0.632,0.458,1.011,0.372  c0.042-0.01,4.393-0.941,9.382,0.089c3.931,0.813,7.103,2.574,9.502,5.246c-2.478-1.592-5.416-2.528-8.573-2.528  C26.224,22.055,19.083,29.195,19.083,37.972z M21.237,35.899C22.241,29.204,28.03,24.055,35,24.055  c6.875,0,12.602,5.012,13.719,11.573C37.447,26.841,25.649,32.975,21.237,35.899z M31.411,49.891  c-2.063-4.389-0.826-9.782,3.212-12.786c1.863-1.387,4.042-2.055,6.203-2.055c2.431,0,4.839,0.846,6.751,2.468  C37.398,37.613,32.968,45.864,31.411,49.891z M68.856,49.891c-1.557-4.027-5.987-12.278-16.167-12.373  c3.611-3.064,8.995-3.358,12.955-0.413C69.682,40.108,70.919,45.502,68.856,49.891z M78.764,35.94  c-2.728-1.811-8.282-4.853-14.798-4.853c-4.061,0-8.497,1.184-12.853,4.582c1.118-6.608,6.882-11.657,13.804-11.657  C71.932,24.013,77.759,29.199,78.764,35.94z M57.555,13.571c1.867-0.993,3.875-1.464,5.854-1.464c3.819,0,7.537,1.752,9.942,4.885  c-4.898-0.438-16.602-0.158-21.874,11.325C49.735,22.696,52.172,16.436,57.555,13.571z M29.038,16.88  c-0.97,0-1.836,0.048-2.556,0.112c3.652-4.757,10.329-6.33,15.797-3.421c5.383,2.864,7.82,9.125,6.077,14.746  C43.857,18.519,34.678,16.88,29.038,16.88z"/></svg>