<svg xmlns="http://www.w3.org/2000/svg" xmlns:xlink="http://www.w3.org/1999/xlink" version="1.1" x="0px" y="0px" viewBox="0 0 100 125" style="enable-background:new 0 0 100 100;" xml:space="preserve"><path d="M89,88H51V68.0875854c7.1508789-0.4718628,13.4660645-5.2911377,15.7568359-12.1124878  c7.2949219-2.4375,12.1591797-9.1660156,12.1591797-16.9082031c0-7.7416992-4.8642578-14.4702148-12.1591797-16.9077148  C64.3193359,14.8637695,57.5908203,10,49.8496094,10s-14.4697266,4.8642578-16.9082031,12.159668  c-7.1855469,2.4135742-12.1591797,9.2900391-12.1591797,16.9072266c0,7.6176758,4.9736328,14.4941406,12.1591797,16.9072266  C35.289917,63.0003052,41.6207275,67.7583008,49,68.1009521V88H11c-0.5527344,0-1,0.4477539-1,1s0.4472656,1,1,1h78  c0.5527344,0,1-0.4477539,1-1S89.5527344,88,89,88z M34.6943359,54.8891602  c-0.0966797-0.3203125-0.3476562-0.5708008-0.6679688-0.6674805c-6.6201172-2.0014648-11.2441406-8.2333984-11.2441406-15.1547852  c0-6.9208984,4.6240234-13.152832,11.2441406-15.1547852c0.3203125-0.0966797,0.5712891-0.347168,0.6679688-0.6674805  C36.7285156,16.519043,42.8183594,12,49.8496094,12c6.921875,0,13.1533203,4.6240234,15.1542969,11.2446289  c0.0966797,0.3203125,0.3476562,0.5708008,0.6679688,0.6674805c6.6201172,2.0014648,11.2441406,8.2333984,11.2441406,15.1547852  c0,6.921875-4.6240234,13.1538086-11.2441406,15.1547852c-0.3203125,0.0966797-0.5712891,0.347168-0.6679688,0.6674805  C63.114502,61.1408691,57.4519043,65.6070557,51,66.0864868v-12.468811l8.609375-8.609375  c0.390625-0.390625,0.390625-1.0234375,0-1.4140625s-1.0234375-0.390625-1.4140625,0L51,50.7895508V37.1518555  c0-0.5522461-0.4472656-1-1-1s-1,0.4477539-1,1v13.6376953l-7.1953125-7.1953125c-0.390625-0.390625-1.0234375-0.390625-1.4140625,0  s-0.390625,1.0234375,0,1.4140625L49,53.6176758v12.4825439C42.3327637,65.7514648,36.645874,61.3418579,34.6943359,54.8891602z"/></svg>