<svg xmlns="http://www.w3.org/2000/svg" xmlns:xlink="http://www.w3.org/1999/xlink" version="1.1" x="0px" y="0px" viewBox="0 0 100 125" style="enable-background:new 0 0 100 100;" xml:space="preserve"><style type="text/css">
	.st0{fill:none;stroke:#000000;stroke-width:2;stroke-linecap:round;stroke-linejoin:round;stroke-miterlimit:10;}
</style><g><path d="M49.4,75.8v14c0,0.6,0.4,1,1,1s1-0.4,1-1v-14C61,75,67.8,62.9,67.8,46.4c0-9.2-4.6-18.3-8.4-24.3   c-4.1-6.4-8.2-10.7-8.4-10.9c-0.4-0.4-1.1-0.4-1.4,0c-0.2,0.2-4.2,4.4-8.4,10.9c-3.8,6-8.4,15.1-8.4,24.3   C32.9,62.9,39.8,75,49.4,75.8z M50.4,13.5c3.1,3.5,15.5,18.3,15.5,33c0,15.3-6,26.6-14.5,27.4V49.9c0-0.6-0.4-1-1-1s-1,0.4-1,1   v23.9C41,73,34.9,61.7,34.9,46.4C34.9,31.7,47.3,17,50.4,13.5z"/></g></svg>