<svg xmlns="http://www.w3.org/2000/svg" xmlns:xlink="http://www.w3.org/1999/xlink" version="1.1" x="0px" y="0px" viewBox="0 0 100 125" style="enable-background:new 0 0 100 100;" xml:space="preserve"><style type="text/css">
	.st0{fill:none;stroke:#000000;stroke-width:2;stroke-linecap:round;stroke-linejoin:round;stroke-miterlimit:10;}
</style><g><path d="M66.1,23.2c0-0.5-0.3-0.9-0.8-1c-0.2-0.1-5.7-1.1-9.7,1.4c0.2-0.8,0.4-1.6,0.4-2.5c0-5.2-4.7-9.2-4.9-9.4   c-0.4-0.3-0.9-0.3-1.3,0c-0.2,0.2-4.9,4.2-4.9,9.4c0,0.9,0.2,1.7,0.4,2.6c-4-2.6-9.6-1.5-9.8-1.5c-0.5,0.1-0.8,0.5-0.8,1   c0,0.2,0.2,5.7,3.6,9.1c-1.6,0-2.7,0.2-2.8,0.3c-0.5,0.1-0.8,0.5-0.8,1c0,0.2,0.2,5.7,3.6,9.1c-1.6,0-2.7,0.2-2.8,0.3   c-0.5,0.1-0.8,0.5-0.8,1c0,0.2,0.2,5.7,3.6,9.1c-1.6,0-2.7,0.2-2.8,0.3c-0.5,0.1-0.8,0.5-0.8,1c0,0.3,0.3,6.5,4.3,9.7   c0.1,0.1,0.2,0.1,0.3,0.2c-2.1-0.1-3.7,0.2-3.8,0.3c-0.5,0.1-0.8,0.5-0.8,1c0,0.3,0.3,6.5,4.3,9.7c2.3,1.8,5.2,2.2,7.4,2.2   c1.7,0,2.9-0.2,3-0.3c0,0,0,0,0,0v10.5c0,0.6,0.4,1,1,1s1-0.4,1-1V76.9c0.2,0,1.4,0.3,3,0.3c2.2,0,5.1-0.4,7.4-2.2   c4.1-3.2,4.3-9.4,4.3-9.7c0-0.5-0.3-0.9-0.8-1c-0.1,0-1.7-0.3-3.8-0.2c0.1-0.1,0.2-0.1,0.3-0.2c4.1-3.2,4.3-9.4,4.3-9.7   c0-0.5-0.3-0.9-0.8-1c-0.1,0-1.3-0.2-2.8-0.3c3.4-3.3,3.6-8.8,3.6-9.1c0-0.5-0.3-0.9-0.8-1c-0.1,0-1.3-0.2-2.8-0.3   c3.4-3.3,3.6-8.8,3.6-9.1c0-0.5-0.3-0.9-0.8-1c-0.1,0-1.3-0.2-2.8-0.3C65.9,28.9,66.1,23.4,66.1,23.2z M64.1,24   c-0.2,1.7-1,5.3-3.5,7.3c-2.5,2-6.2,1.8-7.9,1.7c0.2-1.7,1-5.3,3.5-7.3C58.7,23.7,62.4,23.8,64.1,24z M49.4,60.6   c-0.5-1.7-1.4-3.5-2.9-4.9c1.6,0,2.7-0.2,2.8-0.3c0,0,0,0,0,0V60.6z M46.6,45.3c1.6,0,2.7-0.2,2.8-0.3c0,0,0,0,0,0v5.2   C48.9,48.6,48,46.8,46.6,45.3z M46.6,35c1.6,0,2.7-0.2,2.8-0.3c0,0,0,0,0,0V40C48.9,38.3,48,36.5,46.6,35z M51.4,55.4   c0.2,0,1.3,0.2,2.8,0.3c-1.4,1.4-2.3,3.1-2.8,4.7V55.4z M51.4,45.1c0.2,0,1.3,0.2,2.8,0.3c-1.4,1.4-2.3,3.1-2.8,4.7V45.1z    M51.4,34.8c0.2,0,1.3,0.2,2.8,0.3c-1.4,1.4-2.3,3.1-2.8,4.7V34.8z M50.4,13.8c1.2,1.2,3.6,4,3.6,7.2c0,3.2-2.4,6-3.5,7.2   c-1.2-1.2-3.6-4-3.6-7.2C46.9,17.9,49.2,15,50.4,13.8z M36.7,24c1.7-0.2,5.4-0.3,7.9,1.7c2.5,2,3.3,5.6,3.5,7.3   c-1.7,0.2-5.4,0.3-7.9-1.7C37.7,29.3,37,25.7,36.7,24z M36.7,34.3c1.7-0.2,5.4-0.3,7.9,1.7c2.5,2,3.3,5.6,3.5,7.3   c-1.7,0.2-5.4,0.3-7.9-1.7C37.7,39.6,37,36,36.7,34.3z M36.7,44.6c1.7-0.2,5.4-0.3,7.9,1.7c2.5,2,3.3,5.6,3.5,7.3   c-1.7,0.2-5.4,0.3-7.9-1.7C37.7,49.9,37,46.3,36.7,44.6z M36.7,55c1.7-0.2,5.4-0.3,7.9,1.7c2.5,2,3.3,5.6,3.5,7.3   c-1.7,0.2-5.4,0.3-7.9-1.7C37.7,60.3,37,56.6,36.7,55z M40.2,73.4c-2.5-2-3.3-5.6-3.5-7.3c1.7-0.2,5.4-0.3,7.9,1.7   c2.5,2,3.3,5.6,3.5,7.3C46.4,75.2,42.7,75.4,40.2,73.4z M45.9,66.2c-0.1-0.1-0.2-0.1-0.3-0.2c0.3,0,0.5,0,0.8,0   c1.7,0,2.9-0.2,3-0.3c0,0,0,0,0,0v6C48.8,69.9,47.8,67.7,45.9,66.2z M64.1,66.1c-0.2,1.7-1,5.3-3.5,7.3c-2.5,2-6.2,1.8-7.9,1.7   c0.2-1.7,1-5.3,3.5-7.3C58.7,65.8,62.4,65.9,64.1,66.1z M54.9,66.2c-1.8,1.4-2.9,3.5-3.5,5.3v-5.8c0.2,0,1.4,0.3,3,0.3   c0.3,0,0.5,0,0.8,0C55.1,66.1,55,66.1,54.9,66.2z M60.6,62.2c-2.5,2-6.2,1.8-7.9,1.7c0.2-1.7,1-5.3,3.5-7.3c2.5-2,6.2-1.8,7.9-1.7   C63.8,56.6,63.1,60.3,60.6,62.2z M60.6,51.9c-2.5,2-6.2,1.8-7.9,1.7c0.2-1.7,1-5.3,3.5-7.3c2.5-2,6.2-1.8,7.9-1.7   C63.8,46.3,63.1,49.9,60.6,51.9z M60.6,41.6c-2.5,2-6.2,1.8-7.9,1.7c0.2-1.7,1-5.3,3.5-7.3c2.5-2,6.2-1.8,7.9-1.7   C63.8,36,63.1,39.6,60.6,41.6z"/></g></svg>