<svg xmlns="http://www.w3.org/2000/svg" xmlns:xlink="http://www.w3.org/1999/xlink" version="1.1" x="0px" y="0px" viewBox="0 0 100 125" style="enable-background:new 0 0 100 100;" xml:space="preserve"><style type="text/css">
	.st0{fill:none;stroke:#000000;stroke-width:2;stroke-linecap:round;stroke-linejoin:round;stroke-miterlimit:10;}
</style><g><path d="M49.8,89.5c0.6,0,1-0.4,1-1V72.6c1.4,3.6,4.9,6.2,9,6.2c4.9,0,15.4-7.9,16.5-8.8c0.2-0.2,0.4-0.5,0.4-0.8s-0.1-0.6-0.4-0.8   c-1.2-0.9-11.6-8.8-16.5-8.8c-4.1,0-7.6,2.6-9,6.2V52.9c1.2,2.7,3.9,4.6,7.1,4.6c3.9,0,12.1-6.2,13-6.9c0.2-0.2,0.4-0.5,0.4-0.8   s-0.1-0.6-0.4-0.8c-0.9-0.7-9.1-6.9-13-6.9c-3.2,0-5.9,1.9-7.1,4.6V36.6c1,2.1,3.2,3.6,5.7,3.6c3.2,0,9.7-4.9,10.4-5.5   c0.2-0.2,0.4-0.5,0.4-0.8s-0.1-0.6-0.4-0.8c-0.7-0.6-7.3-5.5-10.4-5.5c-2.5,0-4.6,1.5-5.7,3.6v-4.8c3-0.5,5.3-3.1,5.3-6.2   c0-3.2-4.9-9.7-5.5-10.4c-0.4-0.5-1.2-0.5-1.6,0c-0.6,0.7-5.5,7.3-5.5,10.4c0,3.1,2.3,5.7,5.3,6.2v4c-1.1-1.6-3-2.7-5.2-2.7   c-3.2,0-9.7,4.9-10.4,5.5c-0.2,0.2-0.4,0.5-0.4,0.8s0.1,0.6,0.4,0.8c0.7,0.6,7.3,5.5,10.4,5.5c2.2,0,4.1-1.1,5.2-2.7v8.5   c-1.4-2.2-3.8-3.7-6.6-3.7c-3.9,0-12.1,6.2-13,6.9c-0.2,0.2-0.4,0.5-0.4,0.8s0.1,0.6,0.4,0.8c0.9,0.7,9.1,6.9,13,6.9   c2.8,0,5.2-1.5,6.6-3.7v10.9c-1.6-3-4.8-5.1-8.5-5.1c-4.9,0-15.4,7.9-16.5,8.8c-0.2,0.2-0.4,0.5-0.4,0.8s0.1,0.6,0.4,0.8   c1.2,0.9,11.6,8.8,16.5,8.8c3.7,0,6.9-2.1,8.5-5.1v14.7C48.8,89,49.2,89.5,49.8,89.5z M59.7,61.6c3.3,0,10.6,4.9,14.3,7.6   c-3.6,2.7-11,7.6-14.3,7.6c-4.2,0-7.6-3.4-7.6-7.6C52.1,65,55.5,61.6,59.7,61.6z M57.8,44.2c2.4,0,7.9,3.6,10.8,5.7   c-2.9,2.1-8.3,5.7-10.8,5.7c-3.2,0-5.7-2.6-5.7-5.7S54.7,44.2,57.8,44.2z M56.4,29.5c1.6,0,5.5,2.4,8.1,4.3   c-2.7,1.9-6.5,4.3-8.1,4.3c-2.4,0-4.3-1.9-4.3-4.3S54.1,29.5,56.4,29.5z M43.6,38.1c-1.6,0-5.5-2.4-8.1-4.3   c2.7-1.9,6.5-4.3,8.1-4.3c2.4,0,4.3,1.9,4.3,4.3S45.9,38.1,43.6,38.1z M42.2,55.6c-2.4,0-7.9-3.6-10.8-5.7   c2.9-2.1,8.3-5.7,10.8-5.7c3.2,0,5.7,2.6,5.7,5.7S45.3,55.6,42.2,55.6z M40.3,76.8c-3.3,0-10.6-4.9-14.3-7.6   c3.6-2.7,11-7.6,14.3-7.6c4.2,0,7.6,3.4,7.6,7.6C47.9,73.4,44.5,76.8,40.3,76.8z M45.5,20.1c0-1.6,2.4-5.5,4.3-8.1   c1.9,2.7,4.3,6.5,4.3,8.1c0,2.4-1.9,4.3-4.3,4.3S45.5,22.4,45.5,20.1z"/></g></svg>