<svg xmlns="http://www.w3.org/2000/svg" xmlns:xlink="http://www.w3.org/1999/xlink" version="1.1" x="0px" y="0px" viewBox="0 0 100 125" style="enable-background:new 0 0 100 100;" xml:space="preserve"><style type="text/css">
	.st0{fill:none;stroke:#000000;stroke-width:2;stroke-linecap:round;stroke-linejoin:round;stroke-miterlimit:10;}
</style><path d="M67.74,16.916c-1.653-4.157-5.661-6.903-10.185-6.903c-2.813,0-5.504,1.085-7.533,3.008  c-2.029-1.923-4.72-3.008-7.533-3.008c-4.522,0-8.528,2.744-10.183,6.9c-5.743,0.339-10.312,5.12-10.312,10.947  c0,1.729,0.415,3.439,1.205,4.983c-0.79,1.544-1.205,3.255-1.205,4.983c0,5.799,4.527,10.563,10.233,10.941  c1.604,4.272,5.641,7.094,10.261,7.094c2.375,0,4.657-0.781,6.533-2.178v34.317h-2.563c-0.553,0-1,0.447-1,1s0.447,1,1,1h7.127  c0.553,0,1-0.447,1-1s-0.447-1-1-1h-2.563V53.684c1.876,1.398,4.158,2.178,6.533,2.178c4.624,0,8.662-2.823,10.263-7.099  c5.68-0.403,10.187-5.165,10.187-10.937c0-1.729-0.415-3.439-1.205-4.983c0.79-1.544,1.205-3.255,1.205-4.983  C78.005,22.052,73.466,17.282,67.74,16.916z M74.796,33.345c0.791,1.366,1.209,2.916,1.209,4.482c0,4.916-4.001,8.938-8.918,8.964  c-0.439,0.002-0.825,0.29-0.952,0.71c-1.153,3.805-4.601,6.361-8.579,6.361c-2.598,0-5.068-1.133-6.777-3.107  c-0.189-0.22-0.466-0.346-0.756-0.346s-0.566,0.126-0.756,0.346c-1.709,1.975-4.18,3.107-6.777,3.107  c-3.977,0-7.424-2.556-8.579-6.36c-0.128-0.421-0.517-0.709-0.956-0.709c-4.94-0.004-8.959-4.025-8.959-8.966  c0-1.566,0.418-3.116,1.209-4.482c0.18-0.31,0.18-0.692,0-1.002c-0.791-1.366-1.209-2.916-1.209-4.482  c0-4.944,4.022-8.967,8.908-8.969c0.464,0.038,0.919-0.246,1.062-0.686c1.205-3.704,4.631-6.193,8.524-6.193  c2.598,0,5.068,1.133,6.777,3.107c0.379,0.439,1.133,0.439,1.512,0c1.709-1.975,4.18-3.107,6.777-3.107  c3.893,0,7.318,2.487,8.523,6.19c0.135,0.412,0.527,0.69,0.96,0.69c4.943,0,8.966,4.022,8.966,8.967  c0,1.566-0.418,3.116-1.209,4.482C74.616,32.652,74.616,33.035,74.796,33.345z"/><path d="M57.801,16.254c-2.518,0-4.565,2.048-4.565,4.565s2.048,4.565,4.565,4.565s4.565-2.048,4.565-4.565  S60.318,16.254,57.801,16.254z M57.801,23.385c-1.415,0-2.565-1.15-2.565-2.565s1.15-2.565,2.565-2.565s2.565,1.15,2.565,2.565  S59.216,23.385,57.801,23.385z"/><path d="M50,28.372c-2.518,0-4.565,2.048-4.565,4.565s2.048,4.565,4.565,4.565s4.565-2.048,4.565-4.565S52.518,28.372,50,28.372z   M50,35.503c-1.415,0-2.565-1.15-2.565-2.565s1.15-2.565,2.565-2.565s2.565,1.15,2.565,2.565S51.415,35.503,50,35.503z"/><path d="M42.87,25.895c2.517,0,4.564-2.048,4.564-4.565s-2.048-4.565-4.564-4.565c-2.518,0-4.565,2.048-4.565,4.565  S40.353,25.895,42.87,25.895z M42.87,18.764c1.414,0,2.564,1.15,2.564,2.565s-1.15,2.565-2.564,2.565  c-1.415,0-2.565-1.15-2.565-2.565S41.455,18.764,42.87,18.764z"/><path d="M66.169,30.56c-2.517,0-4.564,2.048-4.564,4.565s2.048,4.565,4.564,4.565c2.518,0,4.565-2.048,4.565-4.565  S68.687,30.56,66.169,30.56z M66.169,37.69c-1.414,0-2.564-1.15-2.564-2.565s1.15-2.565,2.564-2.565c1.415,0,2.565,1.15,2.565,2.565  S67.584,37.69,66.169,37.69z"/><path d="M61.163,63.938c0,2.518,2.048,4.565,4.564,4.565c2.518,0,4.565-2.048,4.565-4.565s-2.048-4.565-4.565-4.565  C63.211,59.372,61.163,61.42,61.163,63.938z M68.293,63.938c0,1.415-1.15,2.565-2.565,2.565c-1.414,0-2.564-1.15-2.564-2.565  s1.15-2.565,2.564-2.565C67.143,61.372,68.293,62.522,68.293,63.938z"/><path d="M41.527,38.909c-2.518,0-4.565,2.048-4.565,4.565s2.048,4.565,4.565,4.565c2.517,0,4.564-2.048,4.564-4.565  S44.044,38.909,41.527,38.909z M41.527,46.04c-1.415,0-2.565-1.15-2.565-2.565s1.15-2.565,2.565-2.565  c1.414,0,2.564,1.15,2.564,2.565S42.941,46.04,41.527,46.04z"/><path d="M33.103,26.995c-2.518,0-4.565,2.048-4.565,4.564c0,2.518,2.048,4.565,4.565,4.565s4.565-2.048,4.565-4.565  C37.668,29.043,35.62,26.995,33.103,26.995z M33.103,34.125c-1.415,0-2.565-1.15-2.565-2.565c0-1.414,1.15-2.564,2.565-2.564  s2.565,1.15,2.565,2.564C35.668,32.975,34.518,34.125,33.103,34.125z"/></svg>