<svg xmlns="http://www.w3.org/2000/svg" xmlns:xlink="http://www.w3.org/1999/xlink" version="1.1" x="0px" y="0px" viewBox="0 0 100 125" style="enable-background:new 0 0 100 100;" xml:space="preserve"><style type="text/css">
	.st0{fill:none;stroke:#000000;stroke-width:2;stroke-linecap:round;stroke-linejoin:round;stroke-miterlimit:10;}
</style><g><path d="M27.8,75.9H49v14c0,0.6,0.4,1,1,1s1-0.4,1-1v-14h21.2c0.3,0,0.7-0.2,0.8-0.5c0.2-0.3,0.2-0.6,0.1-1l-6.7-14.7h4.8   c0.3,0,0.7-0.2,0.8-0.5c0.2-0.3,0.2-0.6,0.1-1l-7.1-15.5h3.1c0.4,0,0.7-0.2,0.9-0.5c0.2-0.3,0.2-0.7,0-1L51.9,12   c-0.2-0.3-0.5-0.5-0.8-0.5c-0.4,0-0.7,0.2-0.9,0.5L31,41.2c-0.2,0.3-0.2,0.7,0,1c0.2,0.3,0.5,0.5,0.9,0.5h3.9l-7.9,15.5   c-0.2,0.3-0.1,0.7,0,1s0.5,0.5,0.9,0.5h5.6l-7.4,14.7c-0.2,0.3-0.1,0.7,0,1C27.1,75.7,27.4,75.9,27.8,75.9z M36.8,59.2   c0.2-0.3,0.1-0.7,0-1c-0.2-0.3-0.5-0.5-0.9-0.5h-5.6l7.9-15.5c0.2-0.3,0.1-0.7,0-1s-0.5-0.5-0.9-0.5h-3.7L51,14.4l15.5,26.4h-2.9   c-0.3,0-0.7,0.2-0.8,0.5c-0.2,0.3-0.2,0.6-0.1,1l7.1,15.5H65c-0.3,0-0.7,0.2-0.8,0.5c-0.2,0.3-0.2,0.6-0.1,1l6.7,14.7H29.4   L36.8,59.2z"/></g></svg>