<svg xmlns="http://www.w3.org/2000/svg" xmlns:xlink="http://www.w3.org/1999/xlink" version="1.1" x="0px" y="0px" viewBox="0 0 100 125" style="enable-background:new 0 0 100 100;" xml:space="preserve"><style type="text/css">
	.st0{fill:none;stroke:#000000;stroke-width:2;stroke-linecap:round;stroke-linejoin:round;stroke-miterlimit:10;}
</style><g><path d="M60.3,56.5c2.2,1.9,5,3.1,8.1,3.1c6.7,0,12.2-5.5,12.2-12.2c0-6.7-5.5-12.2-12.2-12.2c-6.7,0-12.2,5.5-12.2,12.2   c0,2.9,1,5.5,2.7,7.6l-7.6,7.6V40.3c7.6-0.5,13.7-6.9,13.7-14.6c0-8.1-6.6-14.7-14.7-14.7s-14.7,6.6-14.7,14.7   c0,7.8,6,14.1,13.7,14.6v22.3L41.8,55c1.7-2.1,2.7-4.7,2.7-7.6c0-6.7-5.5-12.2-12.2-12.2c-6.7,0-12.2,5.5-12.2,12.2   c0,6.7,5.5,12.2,12.2,12.2c3.1,0,5.9-1.2,8.1-3.1l9,9v22.3c0,0.6,0.4,1,1,1s1-0.4,1-1V65.4L60.3,56.5z M68.4,37.2   c5.6,0,10.2,4.6,10.2,10.2S74,57.6,68.4,57.6S58.3,53,58.3,47.4S62.8,37.2,68.4,37.2z M32.3,57.6c-5.6,0-10.2-4.6-10.2-10.2   s4.6-10.2,10.2-10.2s10.2,4.6,10.2,10.2S37.9,57.6,32.3,57.6z M37.7,25.7c0-7,5.7-12.7,12.7-12.7s12.7,5.7,12.7,12.7   c0,7-5.7,12.7-12.7,12.7S37.7,32.7,37.7,25.7z"/><path d="M67.4,25.7c0,4.6,3.7,8.3,8.3,8.3s8.3-3.7,8.3-8.3c0-4.6-3.7-8.3-8.3-8.3S67.4,21.1,67.4,25.7z M82,25.7   c0,3.5-2.8,6.3-6.3,6.3s-6.3-2.8-6.3-6.3c0-3.5,2.8-6.3,6.3-6.3S82,22.2,82,25.7z"/><path d="M25.1,33.9c4.6,0,8.3-3.7,8.3-8.3c0-4.6-3.7-8.3-8.3-8.3s-8.3,3.7-8.3,8.3C16.8,30.2,20.5,33.9,25.1,33.9z M25.1,19.4   c3.5,0,6.3,2.8,6.3,6.3c0,3.5-2.8,6.3-6.3,6.3s-6.3-2.8-6.3-6.3C18.8,22.2,21.6,19.4,25.1,19.4z"/></g></svg>