<svg xmlns="http://www.w3.org/2000/svg" xmlns:xlink="http://www.w3.org/1999/xlink" version="1.1" x="0px" y="0px" viewBox="0 0 100 125" style="enable-background:new 0 0 100 100;" xml:space="preserve"><path d="M89,88H51v-8.3608398h18.4316406c2.1113281,0,4.0390625-0.9755859,5.2900391-2.6762695  c1.2509766-1.7011719,1.6074219-3.8325195,0.9775391-5.8481445L58.5820312,16.3105469C57.3847656,12.4770508,54.0166016,10,50,10  s-7.3847656,2.4770508-8.5820312,6.3105469L24.3007812,71.1152344c-0.6298828,2.0151367-0.2734375,4.1464844,0.9775391,5.8476562  c1.2509766,1.7006836,3.1787109,2.6762695,5.2900391,2.6762695H49V88H11c-0.5527344,0-1,0.4477539-1,1s0.4472656,1,1,1h78  c0.5527344,0,1-0.4477539,1-1S89.5527344,88,89,88z M30.5683594,77.6391602c-1.4677734,0-2.8085938-0.6782227-3.6787109-1.8613281  s-1.1181641-2.6650391-0.6806641-4.0664062l17.1171875-54.8041992C44.2578125,13.9262695,46.8769531,12,50,12  s5.7421875,1.9262695,6.6738281,4.9072266l17.1171875,54.8037109c0.4375,1.4018555,0.1894531,2.8837891-0.6806641,4.0668945  s-2.2109375,1.8613281-3.6787109,1.8613281H51V64.8789062l6.7314453-6.730957c0.390625-0.390625,0.390625-1.0234375,0-1.4140625  s-1.0234375-0.390625-1.4140625,0L51,62.0509033V51.3730469l5.6943359-5.6943359c0.390625-0.390625,0.390625-1.0234375,0-1.4140625  s-1.0234375-0.390625-1.4140625,0L51,48.5449219v-8.7280273c0-0.5522461-0.4472656-1-1-1s-1,0.4477539-1,1v8.7280273  l-4.2802734-4.2802734c-0.390625-0.390625-1.0234375-0.390625-1.4140625,0s-0.390625,1.0234375,0,1.4140625L49,51.3730469  v10.6778564l-5.3173828-5.3170166c-0.390625-0.390625-1.0234375-0.390625-1.4140625,0s-0.390625,1.0234375,0,1.4140625  L49,64.8789062v12.7602539H30.5683594z"/></svg>