<svg xmlns="http://www.w3.org/2000/svg" xmlns:xlink="http://www.w3.org/1999/xlink" version="1.1" x="0px" y="0px" viewBox="0 0 100 125" style="enable-background:new 0 0 100 100;" xml:space="preserve"><path d="M89,88H51v-9.0170288c2.1327515,1.8609619,4.8856201,2.9286499,7.7548828,2.9286499  c6.5117188,0,11.8095703-5.2978516,11.8095703-11.8095703c0-2.987793-1.1484375-5.8657227-3.1811523-8.0454102  C69.4165039,59.8774414,70.5644531,57,70.5644531,54.0117188s-1.1479492-5.8662109-3.1811523-8.0454102  c2.0327148-2.1796875,3.1811523-5.0576172,3.1811523-8.0454102c0-2.9882812-1.1479492-5.8662109-3.1811523-8.0454102  c2.0332031-2.1791992,3.1811523-5.0571289,3.1811523-8.0454102c0-6.5117188-5.2978516-11.8095703-11.8095703-11.8095703  c-3.3393555,0-6.5273438,1.4384766-8.7548828,3.9008789c-2.2275391-2.4624023-5.4155273-3.9008789-8.7548828-3.9008789  c-6.5117188,0-11.8095703,5.2978516-11.8095703,11.8095703c0,2.9882812,1.1479492,5.8662109,3.1811523,8.0454102  c-2.0332031,2.1791992-3.1811523,5.0571289-3.1811523,8.0454102c0,2.987793,1.1484375,5.8657227,3.1811523,8.0454102  c-2.0332031,2.1791992-3.1811523,5.0571289-3.1811523,8.0454102s1.1479492,5.8657227,3.1811523,8.0449219  c-2.0327148,2.1796875-3.1811523,5.0576172-3.1811523,8.0454102c0,6.5117188,5.2978516,11.8095703,11.8095703,11.8095703  c2.8692627,0,5.6221313-1.067688,7.7548828-2.9286499V88H11c-0.5522461,0-1,0.4477539-1,1s0.4477539,1,1,1h78  c0.5522461,0,1-0.4477539,1-1S89.5522461,88,89,88z M41.2451172,79.9116211c-5.4091797,0-9.8095703-4.4003906-9.8095703-9.8095703  c0-2.7744141,1.1938477-5.4355469,3.2758789-7.3007812c0.2114258-0.1894531,0.3325195-0.4604492,0.3325195-0.7446289  s-0.1210938-0.5551758-0.3330078-0.7451172c-2.081543-1.8642578-3.2753906-4.5249023-3.2753906-7.2998047  s1.1938477-5.4360352,3.2753906-7.300293c0.2119141-0.1899414,0.3330078-0.4609375,0.3330078-0.7451172  s-0.1210938-0.5551758-0.3325195-0.7446289c-2.0820312-1.8652344-3.2758789-4.5263672-3.2758789-7.3007812  c0-2.7749023,1.1938477-5.4360352,3.2753906-7.300293c0.2119141-0.1899414,0.3330078-0.4609375,0.3330078-0.7451172  s-0.1210938-0.5551758-0.3330078-0.7451172c-2.081543-1.8642578-3.2753906-4.5253906-3.2753906-7.300293  c0-5.4091797,4.4003906-9.8095703,9.8095703-9.8095703c3.1293945,0,6.0991211,1.5229492,7.9448242,4.0732422  c0.3759766,0.5205078,1.2441406,0.5205078,1.6201172,0c1.8457031-2.550293,4.8154297-4.0732422,7.9448242-4.0732422  c5.4091797,0,9.8095703,4.4003906,9.8095703,9.8095703c0,2.7749023-1.1938477,5.4360352-3.2753906,7.300293  c-0.2119141,0.1899414-0.3330078,0.4609375-0.3330078,0.7451172s0.1210938,0.5551758,0.3330078,0.7451172  c2.081543,1.8642578,3.2753906,4.5253906,3.2753906,7.300293c0,2.7744141-1.1938477,5.4355469-3.2758789,7.3007812  c-0.2114258,0.1894531-0.3325195,0.4604492-0.3325195,0.7446289s0.1210938,0.5551758,0.3330078,0.7451172  c2.081543,1.8642578,3.2753906,4.5253906,3.2753906,7.300293s-1.1938477,5.4355469-3.2753906,7.2998047  c-0.2119141,0.1899414-0.3330078,0.4609375-0.3330078,0.7451172s0.1210938,0.5551758,0.3325195,0.7446289  c2.0820312,1.8652344,3.2758789,4.5263672,3.2758789,7.3007812c0,5.4091797-4.4003906,9.8095703-9.8095703,9.8095703  c-3.0293579,0-5.8995361-1.4360962-7.7548828-3.8412476V56.0288086l6.7314453-6.7314453  c0.390625-0.390625,0.390625-1.0234375,0-1.4140625s-1.0234375-0.390625-1.4140625,0L51,53.2006836V40.4990234l6.7314453-6.730957  c0.390625-0.390625,0.390625-1.0234375,0-1.4140625s-1.0234375-0.390625-1.4140625,0L51,37.6710205v-9.6817627  c0-0.5522461-0.4477539-1-1-1s-1,0.4477539-1,1v9.6817627l-5.3173828-5.3170166c-0.390625-0.390625-1.0234375-0.390625-1.4140625,0  s-0.390625,1.0234375,0,1.4140625L49,40.4990234v12.7016602l-5.3173828-5.3173828  c-0.390625-0.390625-1.0234375-0.390625-1.4140625,0s-0.390625,1.0234375,0,1.4140625L49,56.0288086v20.0415649  C47.1446533,78.4755249,44.2744751,79.9116211,41.2451172,79.9116211z"/></svg>