<svg xmlns="http://www.w3.org/2000/svg" xmlns:xlink="http://www.w3.org/1999/xlink" version="1.1" x="0px" y="0px" viewBox="0 0 100 125" style="enable-background:new 0 0 100 100;" xml:space="preserve"><style type="text/css">
	.st0{fill:none;stroke:#000000;stroke-width:2;stroke-linecap:round;stroke-linejoin:round;stroke-miterlimit:10;}
</style><g><path d="M66.8,42.6c0-2.7-1.3-5.2-3.3-6.4c0.5-1,0.7-2.2,0.7-3.4c0-3-1.6-5.7-3.9-6.8c0.1-0.5,0.1-1,0.1-1.5c0-3.4-2-7.1-5.1-7.8   c-0.2-3.6-2.7-6.1-6.2-6.1c-3.1,0-5.2,2.4-5.4,6.2c-3.2,0.4-6.2,4-6.2,7.7c0,0.7,0.1,1.3,0.2,2c-1.9,1.3-3,3.7-3,6.3   c0,1.2,0.2,2.3,0.7,3.4c-2,1.2-3.3,3.7-3.3,6.5c0,3.2,1.7,5.9,4.2,6.9c-0.9,1.1-1.8,2.9-1.8,5c0,3,1.8,5.8,5.2,8.5   c8.1,6.4,8.7,14.2,8.7,15.7v0.1c0,0.1,0,0.1,0,0.2c0,0,0,0,0,0v9.1c0,0.6,0.4,1,1,1s1-0.4,1-1v-9c0,0,0-0.1,0-0.2   c0-1.3,0.7-9.3,8.9-15.8c3.4-2.7,5.2-5.6,5.2-8.5c0-2.2-1-4-1.9-5.1C65.2,48.4,66.8,45.7,66.8,42.6z M48.5,13.5v57.3   c-1.4-2.9-3.7-6.2-7.5-9.2c-2.9-2.3-4.4-4.7-4.5-7c0-2.9,2.4-4.9,2.4-4.9c0.3-0.3,0.5-0.7,0.3-1.1s-0.5-0.7-0.9-0.7   c-2.3,0-4.1-2.4-4.1-5.3c0-2.4,1.3-4.4,3-5.1c0.3-0.1,0.5-0.3,0.6-0.6c0.1-0.3,0.1-0.6-0.1-0.9c-0.6-0.9-0.9-2.1-0.9-3.3   c0-2.2,1.1-4.1,2.7-4.9c0.5-0.2,0.7-0.8,0.5-1.2c-0.2-0.7-0.4-1.4-0.4-2.1c0-3,2.7-5.8,4.8-5.8c0.1,0,0.1,0,0.3,0   c0.3,0,0.6-0.1,0.8-0.3s0.3-0.5,0.3-0.8c0-0.1,0-0.2,0-0.3c0-1.4,0.3-4.6,3.2-4.7C48.7,12.8,48.5,13.1,48.5,13.5z M60.7,47.9   c-0.6,0-1,0.4-1,1c0,0.5,0.3,0.9,0.8,1c0.6,0.6,2.2,2.3,2.2,4.7c0,2.3-1.5,4.7-4.5,7c-4,3.1-6.3,6.5-7.7,9.5V13.5   c0-0.3-0.2-0.6-0.4-0.8c2,0.4,3.3,2.1,3.3,4.5c0,0.1,0,0.2,0,0.4c0,0.3,0.1,0.5,0.3,0.7c0.2,0.2,0.5,0.3,0.7,0.3c2.1,0,4,2.9,4,5.9   c0,0.6-0.1,1.2-0.3,1.8c-0.1,0.3,0,0.5,0.1,0.8s0.4,0.4,0.6,0.5c1.9,0.5,3.3,2.6,3.3,5.2c0,1.2-0.3,2.4-0.9,3.3   c-0.2,0.3-0.2,0.6-0.1,0.9c0.1,0.3,0.3,0.5,0.6,0.6c1.8,0.6,3,2.7,3,5C64.8,45.5,63,47.9,60.7,47.9z"/></g></svg>