<?xml version="1.0" encoding="utf-8"?>
<!-- Generator: Adobe Illustrator 16.0.0, SVG Export Plug-In . SVG Version: 6.00 Build 0)  -->
<!DOCTYPE svg PUBLIC "-//W3C//DTD SVG 1.1//EN" "http://www.w3.org/Graphics/SVG/1.1/DTD/svg11.dtd">
<svg version="1.1" id="Layer_1" xmlns="http://www.w3.org/2000/svg" xmlns:xlink="http://www.w3.org/1999/xlink" x="0px" y="0px"
	 width="48px" height="48px" viewBox="0 0 48 48" enable-background="new 0 0 48 48" xml:space="preserve">
<path fill="none" d="M0,0h48v48H0V0z"/>
<path fill="#231F20" d="M23.98,4C12.94,4,4,12.96,4,24s8.94,20,19.98,20C35.04,44,44,35.04,44,24S35.04,4,23.98,4z M37.84,16h-5.9
	c-0.639-2.5-1.56-4.9-2.76-7.12C32.859,10.14,35.92,12.7,37.84,16z M24,8.08c1.66,2.4,2.96,5.06,3.82,7.92h-7.64
	C21.04,13.14,22.34,10.48,24,8.08z M8.52,28C8.2,26.721,8,25.38,8,24s0.2-2.72,0.52-4h6.76C15.12,21.32,15,22.64,15,24
	c0,1.359,0.12,2.68,0.28,4H8.52z M10.16,32h5.9c0.64,2.5,1.56,4.9,2.76,7.12C15.14,37.859,12.08,35.32,10.16,32z M16.06,16h-5.9
	c1.92-3.32,4.98-5.86,8.66-7.12C17.62,11.1,16.7,13.5,16.06,16z M24,39.92c-1.66-2.4-2.96-5.061-3.82-7.92h7.64
	C26.96,34.859,25.66,37.52,24,39.92z M28.68,28h-9.36C19.14,26.68,19,25.359,19,24c0-1.36,0.14-2.7,0.32-4h9.36
	c0.18,1.3,0.32,2.64,0.32,4C29,25.359,28.859,26.68,28.68,28z M29.18,39.12c1.2-2.22,2.121-4.62,2.76-7.12h5.9
	C35.92,35.301,32.859,37.859,29.18,39.12z M32.721,28C32.88,26.68,33,25.359,33,24c0-1.36-0.12-2.68-0.279-4h6.76
	c0.32,1.28,0.52,2.62,0.52,4s-0.199,2.721-0.52,4H32.721z"/>
</svg>
